<svg xmlns="http://www.w3.org/2000/svg" width="148.001" height="43.852" viewBox="0 0 148.001 43.852">
  <g id="Group_5" data-name="Group 5" transform="translate(-190.5 -496.148)">
    <g id="Group_4" data-name="Group 4" transform="translate(123 300.222)">
      <path id="Path_4" data-name="Path 4" d="M210.235,239.778H72.684a5.2,5.2,0,0,1-5.184-5.189V201.107a5.189,5.189,0,0,1,5.184-5.181H210.235a5.26,5.26,0,0,1,5.266,5.181v33.482A5.267,5.267,0,0,1,210.235,239.778Z" fill="#a6a6a6"/>
      <path id="Path_5" data-name="Path 5" d="M215.87,236.021a4.2,4.2,0,0,1-4.2,4.2H74.115a4.2,4.2,0,0,1-4.209-4.2V202.536a4.21,4.21,0,0,1,4.209-4.2H211.665a4.2,4.2,0,0,1,4.2,4.2Z" transform="translate(-1.43 -1.43)"/>
      <path id="Path_6" data-name="Path 6" d="M121.091,237.5a6.355,6.355,0,0,1,3.027-5.332,6.509,6.509,0,0,0-5.126-2.771c-2.157-.227-4.248,1.291-5.347,1.291-1.121,0-2.812-1.269-4.635-1.231a6.825,6.825,0,0,0-5.744,3.5c-2.484,4.3-.631,10.621,1.748,14.1,1.191,1.7,2.582,3.6,4.4,3.537,1.782-.073,2.447-1.136,4.6-1.136,2.13,0,2.755,1.136,4.612,1.093,1.912-.031,3.116-1.71,4.265-3.428a14.068,14.068,0,0,0,1.95-3.972A6.143,6.143,0,0,1,121.091,237.5Z" transform="translate(-20.562 -19.885)" fill="#fff"/>
      <path id="Path_7" data-name="Path 7" d="M134.162,217.218a6.254,6.254,0,0,0,1.432-4.483,6.371,6.371,0,0,0-4.12,2.131,5.953,5.953,0,0,0-1.469,4.317A5.262,5.262,0,0,0,134.162,217.218Z" transform="translate(-37.141 -9.993)" fill="#fff"/>
      <path id="Path_8" data-name="Path 8" d="M194.481,259.712h-2.49l-1.364-4.285h-4.74l-1.3,4.285h-2.424l4.7-14.589h2.9Zm-4.264-6.083-1.233-3.81q-.2-.584-.736-2.748H188.2q-.215.931-.693,2.748l-1.212,3.81Z" transform="translate(-68.17 -29.249)" fill="#fff"/>
      <path id="Path_9" data-name="Path 9" d="M227.473,259.973a5.979,5.979,0,0,1-1.45,4.242A4.241,4.241,0,0,1,222.8,265.6a3.225,3.225,0,0,1-2.988-1.493h-.044v5.542h-2.337V258.305q0-1.687-.087-3.463H219.4l.131,1.667h.044a4.159,4.159,0,0,1,6.656-.412A5.8,5.8,0,0,1,227.473,259.973Zm-2.381.086a4.332,4.332,0,0,0-.693-2.533,2.394,2.394,0,0,0-2.035-1.039,2.43,2.43,0,0,0-1.569.573,2.659,2.659,0,0,0-.92,1.505,3.073,3.073,0,0,0-.109.713v1.754a2.811,2.811,0,0,0,.7,1.938,2.334,2.334,0,0,0,1.829.79,2.392,2.392,0,0,0,2.055-1.017A4.475,4.475,0,0,0,225.092,260.058Z" transform="translate(-89.084 -34.898)" fill="#fff"/>
      <path id="Path_10" data-name="Path 10" d="M257.315,259.973a5.976,5.976,0,0,1-1.452,4.242,4.237,4.237,0,0,1-3.224,1.386,3.223,3.223,0,0,1-2.986-1.493h-.044v5.542h-2.337V258.305q0-1.687-.087-3.463h2.056l.131,1.667h.044a4.16,4.16,0,0,1,6.657-.412A5.814,5.814,0,0,1,257.315,259.973Zm-2.381.086a4.333,4.333,0,0,0-.694-2.533,2.391,2.391,0,0,0-2.034-1.039,2.433,2.433,0,0,0-1.57.573,2.657,2.657,0,0,0-.919,1.505,3.117,3.117,0,0,0-.109.713v1.754a2.819,2.819,0,0,0,.7,1.938,2.337,2.337,0,0,0,1.831.79,2.392,2.392,0,0,0,2.055-1.017A4.475,4.475,0,0,0,254.934,260.058Z" transform="translate(-106.826 -34.898)" fill="#fff"/>
      <path id="Path_11" data-name="Path 11" d="M292.261,255.307a3.888,3.888,0,0,1-1.3,3.03,5.744,5.744,0,0,1-3.974,1.277,6.956,6.956,0,0,1-3.781-.909l.541-1.948a6.405,6.405,0,0,0,3.379.932,3.194,3.194,0,0,0,2.058-.6,1.947,1.947,0,0,0,.734-1.594,2.03,2.03,0,0,0-.606-1.5,5.63,5.63,0,0,0-2.013-1.128q-3.831-1.429-3.831-4.183a3.7,3.7,0,0,1,1.343-2.948,5.3,5.3,0,0,1,3.572-1.149,7.083,7.083,0,0,1,3.311.693l-.584,1.905a5.745,5.745,0,0,0-2.792-.671,2.829,2.829,0,0,0-1.925.606,1.733,1.733,0,0,0-.584,1.321,1.782,1.782,0,0,0,.67,1.428A7.56,7.56,0,0,0,288.6,251a7.2,7.2,0,0,1,2.771,1.774A3.706,3.706,0,0,1,292.261,255.307Z" transform="translate(-128.244 -28.935)" fill="#fff"/>
      <path id="Path_12" data-name="Path 12" d="M315.2,253.07H312.62v5.107q0,1.949,1.364,1.948a4.167,4.167,0,0,0,1.038-.109l.064,1.775a5.288,5.288,0,0,1-1.817.259,2.8,2.8,0,0,1-2.165-.844,4.146,4.146,0,0,1-.779-2.836v-5.3h-1.535v-1.754h1.535v-1.926l2.3-.693v2.619H315.2Z" transform="translate(-143.451 -31.372)" fill="#fff"/>
      <path id="Path_13" data-name="Path 13" d="M338.149,260.017A5.772,5.772,0,0,1,336.764,264a4.948,4.948,0,0,1-3.855,1.6,4.706,4.706,0,0,1-3.689-1.536,5.594,5.594,0,0,1-1.375-3.874,5.715,5.715,0,0,1,1.418-4,4.906,4.906,0,0,1,3.82-1.559,4.8,4.8,0,0,1,3.723,1.537A5.531,5.531,0,0,1,338.149,260.017Zm-2.425.076a4.733,4.733,0,0,0-.627-2.5,2.309,2.309,0,0,0-2.1-1.259,2.344,2.344,0,0,0-2.143,1.259,4.824,4.824,0,0,0-.627,2.54,4.728,4.728,0,0,0,.627,2.5,2.389,2.389,0,0,0,4.221-.022A4.752,4.752,0,0,0,335.724,260.093Z" transform="translate(-154.78 -34.9)" fill="#fff"/>
      <path id="Path_14" data-name="Path 14" d="M363.741,256.9a4.075,4.075,0,0,0-.737-.064,2.208,2.208,0,0,0-1.905.932,3.5,3.5,0,0,0-.584,2.077v5.52h-2.336l.022-7.207q0-1.819-.088-3.312h2.036l.086,2.013h.064a3.6,3.6,0,0,1,1.169-1.666,2.826,2.826,0,0,1,1.69-.564,3.786,3.786,0,0,1,.584.043Z" transform="translate(-172.775 -34.898)" fill="#fff"/>
      <path id="Path_15" data-name="Path 15" d="M384.066,259.575a5.492,5.492,0,0,1-.086,1.06h-7.012a3.051,3.051,0,0,0,1.017,2.382,3.472,3.472,0,0,0,2.293.736,7.758,7.758,0,0,0,2.837-.5l.366,1.622a8.768,8.768,0,0,1-3.527.65,5.11,5.11,0,0,1-3.844-1.439,5.316,5.316,0,0,1-1.4-3.863,6.027,6.027,0,0,1,1.3-3.961,4.48,4.48,0,0,1,3.678-1.687,3.92,3.92,0,0,1,3.443,1.687A5.691,5.691,0,0,1,384.066,259.575Zm-2.229-.607a3.176,3.176,0,0,0-.454-1.8,2.042,2.042,0,0,0-1.863-.974,2.218,2.218,0,0,0-1.86.952,3.489,3.489,0,0,0-.692,1.818h4.869Z" transform="translate(-182.646 -34.869)" fill="#fff"/>
      <path id="Path_16" data-name="Path 16" d="M191.479,217.9a3.6,3.6,0,0,1-1.16,2.914,4.613,4.613,0,0,1-3.051.9,14.19,14.19,0,0,1-1.681-.086v-7.051a12.417,12.417,0,0,1,1.979-.149,4.267,4.267,0,0,1,2.84.819A3.311,3.311,0,0,1,191.479,217.9Zm-1.212.032a2.336,2.336,0,0,0-2.606-2.6,4.874,4.874,0,0,0-.925.075v5.36a6.062,6.062,0,0,0,.777.032,2.716,2.716,0,0,0,2.036-.734A2.937,2.937,0,0,0,190.267,217.935Z" transform="translate(-70.205 -11.004)" fill="#fff"/>
      <path id="Path_17" data-name="Path 17" d="M208.537,221.887a2.835,2.835,0,0,1-.681,1.957,2.43,2.43,0,0,1-1.894.787,2.31,2.31,0,0,1-1.813-.755,2.751,2.751,0,0,1-.674-1.9,2.808,2.808,0,0,1,.7-1.967,2.415,2.415,0,0,1,1.877-.765,2.364,2.364,0,0,1,1.83.754A2.73,2.73,0,0,1,208.537,221.887Zm-1.192.037a2.336,2.336,0,0,0-.308-1.227,1.135,1.135,0,0,0-1.031-.618,1.153,1.153,0,0,0-1.053.618,2.37,2.37,0,0,0-.308,1.248,2.338,2.338,0,0,0,.308,1.227,1.159,1.159,0,0,0,1.042.618,1.146,1.146,0,0,0,1.031-.629A2.323,2.323,0,0,0,207.345,221.924Z" transform="translate(-80.84 -13.861)" fill="#fff"/>
      <path id="Path_18" data-name="Path 18" d="M226.22,219.5l-1.617,5.168H223.55l-.67-2.244a16.8,16.8,0,0,1-.415-1.669h-.021a12.22,12.22,0,0,1-.415,1.669l-.712,2.244h-1.064l-1.521-5.168h1.18l.585,2.457q.212.872.351,1.658h.021q.128-.648.427-1.647l.734-2.467h.936l.7,2.414q.255.883.414,1.7h.032a16.258,16.258,0,0,1,.351-1.7l.627-2.414h1.128Z" transform="translate(-89.91 -14.015)" fill="#fff"/>
      <path id="Path_19" data-name="Path 19" d="M245.245,224.509H244.1v-2.96q0-1.368-1.042-1.368a1.037,1.037,0,0,0-.83.376,1.335,1.335,0,0,0-.319.886v3.065h-1.149v-3.69q0-.681-.042-1.479h1.01l.054.808h.032a1.662,1.662,0,0,1,.6-.624,1.939,1.939,0,0,1,1.041-.29,1.65,1.65,0,0,1,1.2.468,2.275,2.275,0,0,1,.6,1.712Z" transform="translate(-102.98 -13.856)" fill="#fff"/>
      <rect id="Rectangle_31" data-name="Rectangle 31" width="1.148" height="7.539" transform="translate(144.286 203.113)" fill="#fff"/>
      <path id="Path_20" data-name="Path 20" d="M268.962,221.887a2.835,2.835,0,0,1-.681,1.957,2.432,2.432,0,0,1-1.894.787,2.305,2.305,0,0,1-1.813-.755,2.75,2.75,0,0,1-.674-1.9,2.806,2.806,0,0,1,.7-1.967,2.413,2.413,0,0,1,1.876-.765,2.366,2.366,0,0,1,1.831.754A2.73,2.73,0,0,1,268.962,221.887Zm-1.193.037a2.336,2.336,0,0,0-.308-1.227,1.133,1.133,0,0,0-1.029-.618,1.151,1.151,0,0,0-1.054.618,2.37,2.37,0,0,0-.308,1.248,2.338,2.338,0,0,0,.308,1.227,1.159,1.159,0,0,0,1.043.618,1.144,1.144,0,0,0,1.029-.629A2.309,2.309,0,0,0,267.769,221.924Z" transform="translate(-116.763 -13.861)" fill="#fff"/>
      <path id="Path_21" data-name="Path 21" d="M283.876,224.513h-1.032l-.086-.6h-.032a1.769,1.769,0,0,1-1.51.712,1.558,1.558,0,0,1-1.18-.468,1.469,1.469,0,0,1-.4-1.053,1.605,1.605,0,0,1,.792-1.446,4.115,4.115,0,0,1,2.229-.489v-.1q0-1.021-1.073-1.021a2.4,2.4,0,0,0-1.347.382l-.234-.754a3.318,3.318,0,0,1,1.773-.446q2.026,0,2.028,2.138v1.9A8.056,8.056,0,0,0,283.876,224.513Zm-1.193-1.776v-.8q-1.9-.033-1.9,1.042a.779.779,0,0,0,.22.606.8.8,0,0,0,.562.2,1.16,1.16,0,0,0,.7-.239.979.979,0,0,0,.4-.612Z" transform="translate(-126.117 -13.861)" fill="#fff"/>
      <path id="Path_22" data-name="Path 22" d="M298.963,221.191h-1.019l-.054-.83h-.032a1.718,1.718,0,0,1-1.66.947,1.945,1.945,0,0,1-1.553-.734,2.856,2.856,0,0,1-.616-1.9,3,3,0,0,1,.67-2.031,2.059,2.059,0,0,1,1.6-.724,1.548,1.548,0,0,1,1.456.7h.022v-2.967h1.15V219.8Q298.923,220.553,298.963,221.191Zm-1.191-2.179v-.862a1.706,1.706,0,0,0-.032-.362,1.309,1.309,0,0,0-.416-.7,1.128,1.128,0,0,0-.768-.282,1.179,1.179,0,0,0-1.011.511,2.189,2.189,0,0,0-.368,1.308,2.042,2.042,0,0,0,.353,1.244,1.183,1.183,0,0,0,1,.51,1.107,1.107,0,0,0,.907-.425A1.414,1.414,0,0,0,297.773,219.011Z" transform="translate(-134.676 -10.538)" fill="#fff"/>
      <path id="Path_23" data-name="Path 23" d="M323.009,221.887a2.835,2.835,0,0,1-.681,1.957,2.429,2.429,0,0,1-1.894.787,2.311,2.311,0,0,1-1.813-.755,2.75,2.75,0,0,1-.674-1.9,2.806,2.806,0,0,1,.7-1.967,2.415,2.415,0,0,1,1.878-.765,2.362,2.362,0,0,1,1.829.754A2.73,2.73,0,0,1,323.009,221.887Zm-1.191.037a2.34,2.34,0,0,0-.308-1.227,1.137,1.137,0,0,0-1.032-.618,1.156,1.156,0,0,0-1.054.618,2.371,2.371,0,0,0-.308,1.248,2.338,2.338,0,0,0,.308,1.227,1.159,1.159,0,0,0,1.043.618,1.148,1.148,0,0,0,1.032-.629A2.331,2.331,0,0,0,321.818,221.924Z" transform="translate(-148.895 -13.861)" fill="#fff"/>
      <path id="Path_24" data-name="Path 24" d="M339.025,224.509h-1.148v-2.96q0-1.368-1.043-1.368a1.033,1.033,0,0,0-.829.376,1.33,1.33,0,0,0-.319.886v3.065h-1.15v-3.69q0-.681-.041-1.479H335.5l.054.808h.032a1.681,1.681,0,0,1,.6-.624,1.944,1.944,0,0,1,1.043-.29,1.649,1.649,0,0,1,1.2.468,2.272,2.272,0,0,1,.6,1.712Z" transform="translate(-158.734 -13.856)" fill="#fff"/>
      <path id="Path_25" data-name="Path 25" d="M360.119,218.473h-1.265v2.51c0,.638.225.957.67.957a2.011,2.011,0,0,0,.512-.054l.03.872a2.581,2.581,0,0,1-.892.128,1.374,1.374,0,0,1-1.062-.414,2.026,2.026,0,0,1-.384-1.393v-2.606h-.755v-.861h.755v-.947l1.126-.34v1.286h1.265v.862Z" transform="translate(-172.097 -12.128)" fill="#fff"/>
      <path id="Path_26" data-name="Path 26" d="M373.154,221.191H372v-2.938q0-1.39-1.04-1.39a1.1,1.1,0,0,0-1.1.806,1.439,1.439,0,0,0-.054.413v3.108h-1.148v-7.538h1.148v3.115h.022a1.737,1.737,0,0,1,1.553-.85,1.6,1.6,0,0,1,1.182.468,2.353,2.353,0,0,1,.584,1.733Z" transform="translate(-179.049 -10.538)" fill="#fff"/>
      <path id="Path_27" data-name="Path 27" d="M388.472,221.67a2.759,2.759,0,0,1-.043.521h-3.445a1.505,1.505,0,0,0,.5,1.169,1.711,1.711,0,0,0,1.128.362,3.805,3.805,0,0,0,1.393-.244l.18.8a4.332,4.332,0,0,1-1.735.319,2.506,2.506,0,0,1-1.887-.707,2.606,2.606,0,0,1-.685-1.9,2.956,2.956,0,0,1,.638-1.946,2.2,2.2,0,0,1,1.807-.829,1.922,1.922,0,0,1,1.689.829A2.757,2.757,0,0,1,388.472,221.67Zm-1.1-.3a1.546,1.546,0,0,0-.223-.883,1,1,0,0,0-.914-.479,1.091,1.091,0,0,0-.914.468,1.737,1.737,0,0,0-.341.894Z" transform="translate(-188.092 -13.846)" fill="#fff"/>
    </g>
  </g>
</svg>
