<svg xmlns="http://www.w3.org/2000/svg" xmlns:xlink="http://www.w3.org/1999/xlink" width="103" height="103" viewBox="0 0 103 103">
  <defs>
    <linearGradient id="linear-gradient" x1="0.5" x2="0.5" y2="1" gradientUnits="objectBoundingBox">
      <stop offset="0" stop-color="#ceac53"/>
      <stop offset="0.515" stop-color="#f6ea98"/>
      <stop offset="1" stop-color="#ceac53"/>
    </linearGradient>
  </defs>
  <g id="Group_1234" data-name="Group 1234" transform="translate(0.211 0.261)">
    <circle id="Ellipse_27" data-name="Ellipse 27" cx="51.5" cy="51.5" r="51.5" transform="translate(-0.211 -0.261)" fill="#f6ea98" opacity="0.35"/>
    <g id="ticket" transform="translate(26.122 28.895)">
      <path id="Path_2634" data-name="Path 2634" d="M126.507,60.637H89.46L115.764,48a4.461,4.461,0,0,0,3.611,2.512l2.375.221.73,1.519-.79,2.248,2.248.789.73,1.518-.789,2.248,2.248.79Z" transform="translate(-81.724 -47.157)" fill="url(#linear-gradient)"/>
      <path id="Path_2635" data-name="Path 2635" d="M68.649,192.013a4.464,4.464,0,0,1,2.167-3.828l2.045-1.227v-1.685l-1.685-1.685,1.685-1.685v-1.685l-1.685-1.685,1.685-1.685v-1.685l-1.685-1.685,1.685-1.685v-1.685l-1.685-1.685,1.685-1.685v-1.685l-2.045-1.227A4.464,4.464,0,0,1,68.649,160H28.212a4.464,4.464,0,0,1-2.167,3.828L24,165.055v1.685l1.685,1.685L24,170.109v1.685l1.685,1.685L24,175.164v1.685l1.685,1.685L24,180.218V181.9l1.685,1.685L24,185.273v1.685l2.045,1.227a4.464,4.464,0,0,1,2.167,3.828Z" transform="translate(-23.158 -147.363)" fill="url(#linear-gradient)"/>
      <rect id="Rectangle_720" data-name="Rectangle 720" width="35.41" height="21.246" rx="1" transform="translate(7.568 18.023)" fill="#f6ea98"/>
      <path id="Path_2636" data-name="Path 2636" d="M66.137,157.175l-2.045-1.227a3.639,3.639,0,0,1-1.758-3.105.842.842,0,0,0-.842-.842H21.054a.842.842,0,0,0-.842.842,3.639,3.639,0,0,1-1.758,3.105l-2.045,1.227A.842.842,0,0,0,16,157.9v1.685a.843.843,0,0,0,.247.6l1.089,1.089-1.089,1.089a.843.843,0,0,0-.247.6v1.685a.843.843,0,0,0,.247.6l1.089,1.089-1.089,1.089a.843.843,0,0,0-.247.6v1.685a.843.843,0,0,0,.247.6l1.089,1.089-1.089,1.089a.843.843,0,0,0-.247.6v1.685a.843.843,0,0,0,.247.6l1.089,1.089-1.089,1.089a.843.843,0,0,0-.247.6V179.8a.842.842,0,0,0,.409.722l2.045,1.227a3.639,3.639,0,0,1,1.758,3.105.843.843,0,0,0,.842.842H61.491a.842.842,0,0,0,.842-.842,3.639,3.639,0,0,1,1.758-3.105l2.045-1.227a.842.842,0,0,0,.409-.722v-1.685a.843.843,0,0,0-.247-.6l-1.089-1.089,1.089-1.089a.843.843,0,0,0,.247-.6v-1.685a.843.843,0,0,0-.247-.6l-1.089-1.089,1.089-1.089a.843.843,0,0,0,.247-.6v-1.685a.843.843,0,0,0-.247-.6l-1.089-1.089,1.089-1.089a.843.843,0,0,0,.247-.6v-1.685a.843.843,0,0,0-.247-.6l-1.089-1.089,1.089-1.089a.843.843,0,0,0,.247-.6V157.9a.842.842,0,0,0-.409-.722Zm-1.276,2.058-1.438,1.438a.843.843,0,0,0,0,1.191l1.438,1.438v.987l-1.438,1.438a.843.843,0,0,0,0,1.191l1.438,1.438v.987l-1.438,1.438a.843.843,0,0,0,0,1.191l1.438,1.438v.987l-1.438,1.438a.843.843,0,0,0,0,1.191l1.438,1.438v.859l-1.636.982a5.338,5.338,0,0,0-2.508,3.708H21.829a5.338,5.338,0,0,0-2.508-3.708l-1.636-.982v-.859l1.438-1.438a.843.843,0,0,0,0-1.191L17.685,174.4v-.987l1.438-1.438a.843.843,0,0,0,0-1.191l-1.438-1.438v-.987l1.438-1.438a.843.843,0,0,0,0-1.191l-1.438-1.438V163.3l1.438-1.438a.843.843,0,0,0,0-1.191l-1.438-1.438v-.859l1.636-.982a5.338,5.338,0,0,0,2.508-3.708H60.717a5.338,5.338,0,0,0,2.508,3.708l1.636.982Z" transform="translate(-16 -140.206)"/>
      <path id="Path_2637" data-name="Path 2637" d="M183.251,44.727l-.73-1.519a.842.842,0,0,0-.681-.474l-2.375-.22a3.639,3.639,0,0,1-2.929-2.038.842.842,0,0,0-1.124-.395l-18.875,9.068.729,1.519,18.178-8.732a5.338,5.338,0,0,0,3.866,2.256l1.9.176.372.774-.674,1.919a.843.843,0,0,0,.516,1.074l1.919.673.579,1.2,1.519-.73-.73-1.519a.842.842,0,0,0-.48-.43l-1.453-.51.51-1.453a.843.843,0,0,0-.036-.644Z" transform="translate(-141.737 -39.998)"/>
      <path id="Path_2638" data-name="Path 2638" d="M114.54,200H82.527A2.53,2.53,0,0,0,80,202.527v18.534a2.53,2.53,0,0,0,2.527,2.527H114.54a2.53,2.53,0,0,0,2.527-2.527V202.527A2.53,2.53,0,0,0,114.54,200ZM88.424,221.9h-5.9a.843.843,0,0,1-.842-.842V202.527a.843.843,0,0,1,.842-.842h5.9Zm26.958-.842a.843.843,0,0,1-.842.842H90.109V201.685H114.54a.843.843,0,0,1,.842.842Z" transform="translate(-73.26 -183.151)"/>
      <path id="Path_2639" data-name="Path 2639" d="M112,240h3.37v1.685H112Z" transform="translate(-101.891 -218.939)"/>
      <path id="Path_2640" data-name="Path 2640" d="M112,272h3.37v1.685H112Z" transform="translate(-101.891 -247.569)"/>
      <path id="Path_2641" data-name="Path 2641" d="M112,304h3.37v1.685H112Z" transform="translate(-101.891 -276.199)"/>
      <path id="Path_2642" data-name="Path 2642" d="M112,336h3.37v1.685H112Z" transform="translate(-101.891 -304.83)"/>
      <path id="Path_2643" data-name="Path 2643" d="M112,368h3.37v1.685H112Z" transform="translate(-101.891 -333.46)"/>
      <path id="Path_2644" data-name="Path 2644" d="M200,232h1.685v1.685H200Z" transform="translate(-180.624 -211.781)"/>
      <path id="Path_2645" data-name="Path 2645" d="M232,232h6.74v1.685H232Z" transform="translate(-209.254 -211.781)"/>
      <path id="Path_2646" data-name="Path 2646" d="M312,232h3.37v1.685H312Z" transform="translate(-280.83 -211.781)"/>
      <path id="Path_2647" data-name="Path 2647" d="M200,264h5.9v1.685H200Z" transform="translate(-180.624 -240.412)"/>
      <path id="Path_2648" data-name="Path 2648" d="M272,264h1.685v1.685H272Z" transform="translate(-245.042 -240.412)"/>
      <path id="Path_2649" data-name="Path 2649" d="M200,296h8.424v1.685H200Z" transform="translate(-180.624 -269.042)"/>
      <path id="Path_2650" data-name="Path 2650" d="M296,296h1.685v1.685H296Z" transform="translate(-266.515 -269.042)"/>
      <path id="Path_2651" data-name="Path 2651" d="M320,352h1.685v1.685H320Z" transform="translate(-287.987 -319.145)"/>
      <path id="Path_2652" data-name="Path 2652" d="M352,352h5.055v1.685H352Z" transform="translate(-316.618 -319.145)"/>
      <path id="Path_2653" data-name="Path 2653" d="M296,384h6.74v1.685H296Z" transform="translate(-266.515 -347.775)"/>
      <path id="Path_2654" data-name="Path 2654" d="M376,384h2.527v1.685H376Z" transform="translate(-338.09 -347.775)"/>
    </g>
  </g>
</svg>
