<?xml version="1.0" encoding="utf-8"?>
<!-- Generator: Adobe Illustrator 24.3.0, SVG Export Plug-In . SVG Version: 6.00 Build 0)  -->
<svg version="1.1" id="Layer_1" xmlns="http://www.w3.org/2000/svg" xmlns:xlink="http://www.w3.org/1999/xlink" x="0px" y="0px"
	 viewBox="0 0 31.5 31.5" style="enable-background:new 0 0 31.5 31.5;" xml:space="preserve">
<path d="M19,12.3c-0.3,0-0.6,0.3-0.6,0.6v10.9c0,0.3,0.3,0.6,0.6,0.6c0.3,0,0.6-0.3,0.6-0.6V12.9C19.6,12.6,19.4,12.3,19,12.3z"/>
<path d="M12.2,12.3c-0.3,0-0.6,0.3-0.6,0.6v10.9c0,0.3,0.3,0.6,0.6,0.6c0.3,0,0.6-0.3,0.6-0.6V12.9C12.8,12.6,12.6,12.3,12.2,12.3z"
	/>
<path d="M7.3,10.8V25c0,0.8,0.3,1.6,0.8,2.2c0.5,0.6,1.3,0.9,2.1,0.9h10.9c0.8,0,1.5-0.3,2.1-0.9c0.5-0.6,0.8-1.4,0.8-2.2V10.8
	c1.1-0.3,1.8-1.3,1.6-2.4c-0.1-1.1-1.1-1.9-2.2-1.9h-3V5.7c0-0.6-0.2-1.2-0.7-1.6c-0.4-0.4-1-0.7-1.6-0.7h-5.1
	c-0.6,0-1.2,0.2-1.6,0.7c-0.4,0.4-0.7,1-0.7,1.6v0.7h-3c-1.1,0-2,0.8-2.2,1.9C5.5,9.4,6.2,10.5,7.3,10.8z M21.1,26.9H10.2
	c-1,0-1.8-0.8-1.8-1.9V10.8h14.4V25C22.8,26,22.1,26.9,21.1,26.9z M11.9,5.7c0-0.3,0.1-0.6,0.3-0.8c0.2-0.2,0.5-0.3,0.8-0.3h5.1
	c0.3,0,0.6,0.1,0.8,0.3c0.2,0.2,0.3,0.5,0.3,0.8v0.7h-7.4V5.7z M7.8,7.6h15.6c0.6,0,1,0.5,1,1c0,0.6-0.5,1-1,1H7.8c-0.6,0-1-0.5-1-1
	C6.8,8,7.3,7.6,7.8,7.6z"/>
<path d="M15.6,12.3c-0.3,0-0.6,0.3-0.6,0.6v10.9c0,0.3,0.3,0.6,0.6,0.6c0.3,0,0.6-0.3,0.6-0.6V12.9C16.2,12.6,16,12.3,15.6,12.3z"/>
</svg>
