<svg xmlns="http://www.w3.org/2000/svg" xmlns:xlink="http://www.w3.org/1999/xlink" width="56.047" height="45.079" viewBox="0 0 56.047 45.079">
  <defs>
    <linearGradient id="linear-gradient" x1="0.5" x2="0.5" y2="1" gradientUnits="objectBoundingBox">
      <stop offset="0" stop-color="#ceac53"/>
      <stop offset="0.531" stop-color="#f6ea98"/>
      <stop offset="1" stop-color="#dec164"/>
    </linearGradient>
  </defs>
  <g id="Group_1143" data-name="Group 1143" transform="translate(-0.225)">
    <g id="wallet_11_" data-name="wallet(11)" transform="translate(9.779 0)">
      <g id="Group_1139" data-name="Group 1139" transform="translate(0 0)">
        <g id="Group_1138" data-name="Group 1138">
          <path id="Path_2606" data-name="Path 2606" d="M33.976,56.826H46.494V51.014a6.713,6.713,0,0,0-6.706-6.706H6.706A6.713,6.713,0,0,0,0,51.014V76.049a6.713,6.713,0,0,0,6.706,6.706H39.788a6.713,6.713,0,0,0,6.706-6.706V70.237H33.976a6.706,6.706,0,1,1,0-13.412Z" transform="translate(0 -44.308)" fill="url(#linear-gradient)"/>
        </g>
      </g>
      <g id="Group_1141" data-name="Group 1141" transform="translate(29.953 15.2)">
        <g id="Group_1140" data-name="Group 1140">
          <path id="Path_2607" data-name="Path 2607" d="M333.87,211.692a4.024,4.024,0,1,0,0,8.047h12.517v-8.047H333.87Zm1.788,5.365H333.87a1.341,1.341,0,1,1,0-2.682h1.788a1.341,1.341,0,1,1,0,2.682Z" transform="translate(-329.846 -211.692)" fill="url(#linear-gradient)"/>
        </g>
      </g>
    </g>
    <g id="Group_1142" data-name="Group 1142" transform="translate(0 17.306)">
      <g id="Ellipse_24" data-name="Ellipse 24" transform="translate(0.225 -0.227)" fill="#fff" stroke="#fff" stroke-width="1">
        <ellipse cx="13" cy="14" rx="13" ry="14" stroke="none"/>
        <ellipse cx="13" cy="14" rx="12.5" ry="13.5" fill="none"/>
      </g>
      <path id="Path_2605" data-name="Path 2605" d="M23.533,12A11.533,11.533,0,1,0,35.065,23.533,11.547,11.547,0,0,0,23.533,12Zm5.286,13.455H25.455v3.364a1.922,1.922,0,1,1-3.844,0V25.455H18.247a1.922,1.922,0,1,1,0-3.844h3.364V18.247a1.922,1.922,0,1,1,3.844,0v3.364h3.364a1.922,1.922,0,1,1,0,3.844Z" transform="translate(-10.601 -9.57)" fill="url(#linear-gradient)"/>
    </g>
  </g>
</svg>
