<svg id="Group_1294" data-name="Group 1294" xmlns="http://www.w3.org/2000/svg" width="11.358" height="13.846" viewBox="0 0 11.358 13.846">
  <path id="Path_1672" data-name="Path 1672" d="M5.679,0A5.68,5.68,0,0,0,4.068,11.126l1.248,2.5a.406.406,0,0,0,.726,0l1.248-2.5A5.68,5.68,0,0,0,5.679,0ZM6.905,10.391a.405.405,0,0,0-.261.211l-.966,1.931L4.713,10.6a.406.406,0,0,0-.261-.211,4.867,4.867,0,1,1,2.453,0Zm0,0"/>
  <path id="Path_1673" data-name="Path 1673" d="M151.623,150a1.623,1.623,0,1,0,1.623,1.623A1.624,1.624,0,0,0,151.623,150Zm0,2.434a.811.811,0,1,1,.811-.811A.812.812,0,0,1,151.623,152.434Zm0,0" transform="translate(-145.943 -145.943)" fill="#931837"/>
</svg>
