<svg xmlns="http://www.w3.org/2000/svg" xmlns:xlink="http://www.w3.org/1999/xlink" width="86.154" height="82.808" viewBox="0 0 86.154 82.808">
  <defs>
    <linearGradient id="linear-gradient" x1="0.5" x2="0.5" y2="1" gradientUnits="objectBoundingBox">
      <stop offset="0" stop-color="#ceac53"/>
      <stop offset="0.515" stop-color="#f6ea98"/>
      <stop offset="1" stop-color="#ceac53"/>
    </linearGradient>
    <linearGradient id="linear-gradient-3" x1="0.5" x2="0.5" y2="1" gradientUnits="objectBoundingBox">
      <stop offset="0" stop-color="#ceac53"/>
      <stop offset="0.531" stop-color="#f6ea98"/>
      <stop offset="1" stop-color="#dec164"/>
    </linearGradient>
  </defs>
  <g id="Group_1331" data-name="Group 1331" transform="translate(-164 -231.653)">
    <g id="Group_1176" data-name="Group 1176" transform="translate(165.262 232.915)">
      <path id="Path_2656" data-name="Path 2656" d="M23.533,28.1a17.9,17.9,0,0,0,3.1-1.73c3.375-2.457,5.7-7.247,9.752-8.564C40.3,16.535,44.979,19,49.315,19s9.012-2.47,12.925-1.2c4.055,1.317,6.377,6.107,9.752,8.564C75.4,28.85,80.665,29.594,83.146,33c2.457,3.375,1.554,8.6,2.871,12.655,1.27,3.913,5.113,7.589,5.113,11.925S87.287,65.6,86.017,69.51c-1.317,4.055-.414,9.279-2.871,12.655C80.665,85.574,75.4,86.318,71.992,88.8c-3.375,2.457-5.7,7.247-9.752,8.564-3.913,1.27-8.588-1.2-12.925-1.2s-9.012,2.47-12.925,1.2c-4.055-1.317-6.377-6.107-9.752-8.564-3.409-2.481-8.673-3.226-11.154-6.635-2.457-3.375-1.554-8.6-2.871-12.655C11.343,65.6,7.5,61.92,7.5,57.584s3.843-8.013,5.113-11.925C13.93,41.6,13.027,36.379,15.484,33a9.457,9.457,0,0,1,3.034-2.569" transform="translate(-7.5 -17.442)" fill="url(#linear-gradient)"/>
    </g>
    <g id="Group_1177" data-name="Group 1177" transform="translate(173.18 240.516)">
      <path id="Path_2657" data-name="Path 2657" d="M122.349,95.155c0,3.515-3.115,6.5-4.145,9.667-1.067,3.287-.336,7.522-2.327,10.259-2.011,2.764-6.278,3.367-9.042,5.379-2.736,1.991-4.618,5.875-7.905,6.942-3.172,1.03-6.962-.972-10.477-.972s-7.305,2-10.477.972c-3.287-1.067-5.169-4.951-7.905-6.942-2.764-2.011-7.031-2.615-9.042-5.379-1.991-2.736-1.26-6.971-2.327-10.259-1.03-3.172-4.145-6.152-4.145-9.667s3.115-6.5,4.145-9.667c1.067-3.287.336-7.522,2.327-10.259,2.011-2.764,6.278-3.367,9.042-5.379,2.736-1.991,4.618-5.875,7.905-6.942,3.172-1.03,6.962.972,10.477.972s7.305-2,10.477-.972c3.287,1.067,5.169,4.951,7.905,6.942,2.764,2.011,7.031,2.615,9.042,5.379,1.991,2.736,1.26,6.971,2.327,10.259C119.234,88.659,122.349,91.639,122.349,95.155Z" transform="translate(-54.554 -62.613)" fill="#f5f5f5"/>
    </g>
    <g id="Group_1178" data-name="Group 1178" transform="translate(214.706 232.916)">
      <path id="Path_2658" data-name="Path 2658" d="M330.407,45.66c-1.317-4.055-.414-9.279-2.871-12.655-2.481-3.409-7.745-4.154-11.154-6.635-3.376-2.457-5.7-7.247-9.752-8.564a10.879,10.879,0,0,0-5.3-.073c.083.023.166.046.248.073,4.055,1.317,6.377,6.107,9.752,8.564,3.409,2.481,8.673,3.226,11.154,6.635,2.457,3.375,1.554,8.6,2.871,12.655,1.271,3.913,5.113,7.589,5.113,11.925s-3.843,8.013-5.113,11.925c-1.317,4.055-.414,9.279-2.871,12.655-2.481,3.409-7.745,4.154-11.154,6.635-3.375,2.457-5.7,7.247-9.752,8.564-.082.027-.165.049-.248.073a10.881,10.881,0,0,0,5.3-.073c4.055-1.317,6.377-6.107,9.752-8.564,3.409-2.481,8.673-3.226,11.154-6.635,2.457-3.375,1.554-8.6,2.871-12.655,1.27-3.913,5.113-7.589,5.113-11.925s-3.843-8.013-5.113-11.925Z" transform="translate(-301.333 -17.444)" fill="url(#linear-gradient)"/>
    </g>
    <g id="Group_1179" data-name="Group 1179" transform="translate(212.662 240.516)">
      <path id="Path_2659" data-name="Path 2659" d="M313.357,85.488c-1.067-3.287-.336-7.522-2.327-10.259-2.011-2.764-6.279-3.367-9.042-5.378-2.736-1.991-4.618-5.875-7.905-6.942a9.678,9.678,0,0,0-4.892.055c3.191,1.138,5.057,4.927,7.75,6.887,2.764,2.011,7.031,2.615,9.042,5.378,1.991,2.736,1.26,6.971,2.327,10.259,1.03,3.172,4.145,6.152,4.145,9.667s-3.115,6.5-4.145,9.667c-1.067,3.287-.336,7.522-2.327,10.259-2.011,2.764-6.279,3.367-9.042,5.379-2.693,1.96-4.559,5.749-7.75,6.887a9.68,9.68,0,0,0,4.892.056c3.287-1.068,5.169-4.951,7.905-6.942,2.764-2.011,7.031-2.615,9.042-5.379,1.991-2.736,1.26-6.971,2.327-10.259,1.03-3.172,4.145-6.152,4.145-9.667S314.387,88.66,313.357,85.488Z" transform="translate(-289.19 -62.614)" fill="#ebe5ed"/>
    </g>
    <g id="Group_1182" data-name="Group 1182" transform="translate(164 231.653)">
      <path id="Path_2662" data-name="Path 2662" d="M83.146,43.3a22.3,22.3,0,0,1-2.167-4.273,23.569,23.569,0,0,1-.812-4.929c-.273-2.835-.555-5.766-2.238-8.079-1.7-2.337-4.413-3.51-7.036-4.645a23.122,23.122,0,0,1-4.4-2.267,22.8,22.8,0,0,1-3.458-3.442c-1.9-2.161-3.857-4.4-6.646-5.3-2.669-.867-5.518-.235-8.273.375a24.3,24.3,0,0,1-5.041.762,24.317,24.317,0,0,1-5.041-.762c-2.755-.61-5.6-1.242-8.273-.375-2.79.906-4.75,3.141-6.646,5.3a22.8,22.8,0,0,1-3.458,3.442,12.554,12.554,0,0,1-1.491.919,1.262,1.262,0,1,0,1.188,2.227,15.029,15.029,0,0,0,1.788-1.105,24.966,24.966,0,0,0,3.871-3.818c1.748-1.992,3.4-3.874,5.529-4.566,2.016-.654,4.411-.123,6.948.439a26.147,26.147,0,0,0,5.587.822,26.138,26.138,0,0,0,5.587-.822c2.537-.562,4.933-1.093,6.948-.439,2.13.691,3.781,2.573,5.529,4.566a24.959,24.959,0,0,0,3.871,3.818,25.294,25.294,0,0,0,4.879,2.543c2.418,1.046,4.7,2.034,6,3.814,1.278,1.756,1.515,4.223,1.767,6.835a25.756,25.756,0,0,0,.924,5.467,24.457,24.457,0,0,0,2.4,4.784c1.363,2.292,2.652,4.456,2.652,6.752s-1.289,4.46-2.653,6.752a24.458,24.458,0,0,0-2.4,4.784,25.766,25.766,0,0,0-.924,5.467c-.251,2.612-.489,5.08-1.767,6.835-1.3,1.78-3.579,2.768-6,3.814a25.294,25.294,0,0,0-4.879,2.543,24.966,24.966,0,0,0-3.871,3.818c-1.748,1.992-3.4,3.874-5.529,4.566-2.015.654-4.411.123-6.948-.439a26.148,26.148,0,0,0-5.587-.822,26.148,26.148,0,0,0-5.587.822c-2.537.562-4.932,1.093-6.948.439-2.13-.691-3.781-2.573-5.529-4.566a24.959,24.959,0,0,0-3.871-3.818A25.3,25.3,0,0,0,16.263,79c-2.418-1.046-4.7-2.034-6-3.814C8.988,73.429,8.751,70.961,8.5,68.349a25.767,25.767,0,0,0-.924-5.467,24.454,24.454,0,0,0-2.4-4.784c-1.364-2.291-2.653-4.456-2.653-6.752s1.289-4.46,2.653-6.752a24.46,24.46,0,0,0,2.4-4.784A25.768,25.768,0,0,0,8.5,34.344c.251-2.612.489-5.08,1.767-6.835a9.332,9.332,0,0,1,3.576-2.715,1.262,1.262,0,1,0-1.127-2.259,11.97,11.97,0,0,0-4.49,3.489C6.542,28.337,6.26,31.268,5.987,34.1a23.572,23.572,0,0,1-.812,4.929A22.3,22.3,0,0,1,3.008,43.3C1.529,45.788,0,48.356,0,51.347s1.529,5.559,3.008,8.043a22.3,22.3,0,0,1,2.167,4.272,23.58,23.58,0,0,1,.812,4.929c.273,2.835.555,5.766,2.238,8.079,1.7,2.337,4.413,3.51,7.036,4.645a23.117,23.117,0,0,1,4.4,2.267,22.8,22.8,0,0,1,3.458,3.442c1.9,2.161,3.857,4.4,6.646,5.3a9.235,9.235,0,0,0,2.875.425,25.41,25.41,0,0,0,5.4-.8,24.306,24.306,0,0,1,5.041-.762,24.3,24.3,0,0,1,5.041.762c2.755.61,5.6,1.242,8.273.375,2.79-.906,4.75-3.141,6.646-5.3A22.805,22.805,0,0,1,66.5,83.582a23.136,23.136,0,0,1,4.4-2.267c2.623-1.135,5.335-2.308,7.036-4.645,1.683-2.313,1.965-5.244,2.238-8.079a23.569,23.569,0,0,1,.812-4.929,22.3,22.3,0,0,1,2.167-4.272c1.479-2.484,3.008-5.052,3.008-8.043s-1.529-5.559-3.008-8.043Z" transform="translate(0 -9.942)"/>
      <path id="Path_2663" data-name="Path 2663" d="M51.261,78.858a17.923,17.923,0,0,1-1.735,3.415c-1.215,2.041-2.472,4.152-2.472,6.642s1.257,4.6,2.472,6.642a17.937,17.937,0,0,1,1.735,3.415,18.945,18.945,0,0,1,.648,3.945c.224,2.33.456,4.739,1.859,6.667,1.417,1.947,3.646,2.912,5.8,3.844a18.59,18.59,0,0,1,3.518,1.812,18.31,18.31,0,0,1,2.765,2.754c1.558,1.776,3.17,3.613,5.494,4.368a7.723,7.723,0,0,0,2.4.357,20.794,20.794,0,0,0,4.428-.655,19.23,19.23,0,0,1,4.035-.612,19.23,19.23,0,0,1,4.035.612c2.265.5,4.606,1.021,6.832.3,2.324-.755,3.935-2.591,5.494-4.368a18.325,18.325,0,0,1,2.765-2.754,18.59,18.59,0,0,1,3.518-1.812c2.156-.933,4.385-1.9,5.8-3.844,1.4-1.928,1.635-4.337,1.859-6.667a18.943,18.943,0,0,1,.648-3.945,17.914,17.914,0,0,1,1.735-3.415c1.215-2.041,2.472-4.152,2.472-6.642s-1.257-4.6-2.472-6.642a17.934,17.934,0,0,1-1.735-3.415,18.943,18.943,0,0,1-.648-3.945c-.224-2.33-.456-4.739-1.859-6.667-1.417-1.947-3.646-2.912-5.8-3.844a18.59,18.59,0,0,1-3.518-1.812,18.309,18.309,0,0,1-2.765-2.754c-1.558-1.776-3.17-3.613-5.494-4.368-2.226-.723-4.568-.2-6.832.3a19.231,19.231,0,0,1-4.035.612,19.23,19.23,0,0,1-4.035-.612c-2.265-.5-4.607-1.021-6.832-.3-2.324.755-3.936,2.591-5.494,4.368a18.318,18.318,0,0,1-2.765,2.754A18.58,18.58,0,0,1,59.57,64.4c-2.156.933-4.385,1.9-5.8,3.844-1.4,1.928-1.635,4.337-1.859,6.667a18.949,18.949,0,0,1-.648,3.945Zm3.16-3.7c.2-2.084.39-4.053,1.387-5.423,1.011-1.39,2.834-2.178,4.763-3.013a20.679,20.679,0,0,0,4-2.088A20.4,20.4,0,0,0,67.75,61.5c1.395-1.59,2.712-3.091,4.376-3.632,1.571-.51,3.483-.087,5.507.362a21.373,21.373,0,0,0,4.581.672,21.373,21.373,0,0,0,4.581-.672c2.023-.449,3.935-.872,5.507-.362,1.664.54,2.981,2.042,4.376,3.632a20.4,20.4,0,0,0,3.177,3.131,20.679,20.679,0,0,0,4,2.088c1.929.835,3.752,1.623,4.763,3.013,1,1.371,1.187,3.339,1.387,5.423a21.06,21.06,0,0,0,.76,4.483,20,20,0,0,0,1.966,3.927c1.089,1.828,2.117,3.555,2.117,5.351s-1.028,3.523-2.117,5.351a19.994,19.994,0,0,0-1.966,3.927,21.06,21.06,0,0,0-.76,4.483c-.2,2.084-.39,4.053-1.387,5.423-1.011,1.39-2.834,2.178-4.763,3.013a20.679,20.679,0,0,0-4,2.088,20.411,20.411,0,0,0-3.177,3.13c-1.395,1.59-2.712,3.091-4.376,3.632-1.572.51-3.483.087-5.507-.362a21.373,21.373,0,0,0-4.581-.672,21.373,21.373,0,0,0-4.581.672c-2.023.448-3.935.872-5.507.362-1.664-.54-2.981-2.042-4.376-3.632a20.4,20.4,0,0,0-3.177-3.13,20.688,20.688,0,0,0-4-2.088c-1.929-.835-3.752-1.623-4.763-3.013-1-1.371-1.187-3.339-1.387-5.423a21.058,21.058,0,0,0-.76-4.483A20,20,0,0,0,51.7,94.266c-1.089-1.828-2.117-3.555-2.117-5.351s1.028-3.522,2.117-5.351a20.012,20.012,0,0,0,1.966-3.927,21.07,21.07,0,0,0,.76-4.483Z" transform="translate(-39.136 -47.511)"/>
    </g>
    <path id="Union_2" data-name="Union 2" d="M-4235.023-988.747l-8.018-8.018-8.019,8.018a2.267,2.267,0,0,1-3.207,0l-1.069-1.069a2.266,2.266,0,0,1,0-3.207l8.019-8.018-8.019-8.018a2.269,2.269,0,0,1,0-3.208l1.07-1.068a2.265,2.265,0,0,1,3.207,0l8.018,8.018,8.018-8.018a2.266,2.266,0,0,1,3.208,0l1.069,1.069a2.265,2.265,0,0,1,0,3.207l-8.018,8.017,8.018,8.018a2.264,2.264,0,0,1,0,3.207l-1.069,1.069a2.255,2.255,0,0,1-1.6.664A2.264,2.264,0,0,1-4235.023-988.747Z" transform="translate(4449.899 1273.889)" stroke="#000" stroke-width="2" fill="url(#linear-gradient-3)"/>
  </g>
</svg>
