<svg xmlns="http://www.w3.org/2000/svg" xmlns:xlink="http://www.w3.org/1999/xlink" width="148.001" height="43.852" viewBox="0 0 148.001 43.852">
  <defs>
    <linearGradient id="linear-gradient" x1="-2.703" y1="-3.232" x2="-2.674" y2="-3.232" gradientUnits="objectBoundingBox">
      <stop offset="0" stop-color="#00a0ff"/>
      <stop offset="0.007" stop-color="#00a1ff"/>
      <stop offset="0.26" stop-color="#00beff"/>
      <stop offset="0.512" stop-color="#00d2ff"/>
      <stop offset="0.76" stop-color="#00dfff"/>
      <stop offset="1" stop-color="#00e3ff"/>
    </linearGradient>
    <linearGradient id="linear-gradient-2" x1="-4.709" y1="-10.505" x2="-4.672" y2="-10.505" gradientUnits="objectBoundingBox">
      <stop offset="0" stop-color="#ffe000"/>
      <stop offset="0.409" stop-color="#ffbd00"/>
      <stop offset="0.775" stop-color="orange"/>
      <stop offset="1" stop-color="#ff9c00"/>
    </linearGradient>
    <linearGradient id="linear-gradient-3" x1="-2.122" y1="-7.19" x2="-2.099" y2="-7.19" gradientUnits="objectBoundingBox">
      <stop offset="0" stop-color="#ff3a44"/>
      <stop offset="1" stop-color="#c31162"/>
    </linearGradient>
    <linearGradient id="linear-gradient-4" x1="-2.136" y1="-6.19" x2="-2.113" y2="-6.19" gradientUnits="objectBoundingBox">
      <stop offset="0" stop-color="#32a071"/>
      <stop offset="0.068" stop-color="#2da771"/>
      <stop offset="0.476" stop-color="#15cf74"/>
      <stop offset="0.801" stop-color="#06e775"/>
      <stop offset="1" stop-color="#00f076"/>
    </linearGradient>
    <linearGradient id="linear-gradient-5" x1="-2.122" y1="-11.065" x2="-2.099" y2="-11.065" gradientUnits="objectBoundingBox">
      <stop offset="0" stop-color="#cc2e36"/>
      <stop offset="1" stop-color="#9c0e4e"/>
    </linearGradient>
    <linearGradient id="linear-gradient-6" x1="-65.052" y1="-66.755" x2="-64.363" y2="-66.755" gradientUnits="objectBoundingBox">
      <stop offset="0" stop-color="#008de0"/>
      <stop offset="0.007" stop-color="#008de0"/>
      <stop offset="0.26" stop-color="#00a7e0"/>
      <stop offset="0.512" stop-color="#00b8e0"/>
      <stop offset="0.76" stop-color="#00c4e0"/>
      <stop offset="1" stop-color="#00c7e0"/>
    </linearGradient>
    <linearGradient id="linear-gradient-7" x1="-474.98" y1="-1406.397" x2="-470.017" y2="-1406.397" gradientUnits="objectBoundingBox">
      <stop offset="0" stop-color="#e0333c"/>
      <stop offset="1" stop-color="#ab0f56"/>
    </linearGradient>
    <linearGradient id="linear-gradient-8" x1="-8.617" y1="-21.907" x2="-8.555" y2="-21.907" gradientUnits="objectBoundingBox">
      <stop offset="0" stop-color="#e0c500"/>
      <stop offset="0.409" stop-color="#e0a600"/>
      <stop offset="0.775" stop-color="#e09100"/>
      <stop offset="1" stop-color="#e08900"/>
    </linearGradient>
    <linearGradient id="linear-gradient-9" x1="-558.503" y1="-1037.931" x2="-558.503" y2="-1037.931" xlink:href="#linear-gradient-7"/>
    <linearGradient id="linear-gradient-10" x1="-65.096" y1="-49.133" x2="-64.407" y2="-49.133" gradientUnits="objectBoundingBox">
      <stop offset="0" stop-color="#40b8ff"/>
      <stop offset="0.007" stop-color="#40b9ff"/>
      <stop offset="0.26" stop-color="#40ceff"/>
      <stop offset="0.512" stop-color="#40ddff"/>
      <stop offset="0.76" stop-color="#40e7ff"/>
      <stop offset="1" stop-color="#40eaff"/>
    </linearGradient>
    <linearGradient id="linear-gradient-11" x1="-8.616" y1="-20.889" x2="-8.555" y2="-20.889" gradientUnits="objectBoundingBox">
      <stop offset="0" stop-color="#ffe840"/>
      <stop offset="0.409" stop-color="#ffce40"/>
      <stop offset="0.775" stop-color="#ffbc40"/>
      <stop offset="1" stop-color="#ffb540"/>
    </linearGradient>
    <linearGradient id="linear-gradient-12" x1="-2.122" y1="-9.12" x2="-2.1" y2="-9.12" gradientUnits="objectBoundingBox">
      <stop offset="0" stop-color="#65b895"/>
      <stop offset="0.068" stop-color="#62bd95"/>
      <stop offset="0.476" stop-color="#50db97"/>
      <stop offset="0.801" stop-color="#44ed98"/>
      <stop offset="1" stop-color="#40f498"/>
    </linearGradient>
  </defs>
  <g id="Group_6" data-name="Group 6" transform="translate(-67.5 -195.926)">
    <path id="Path_28" data-name="Path 28" d="M210.019,239.778H72.982A5.5,5.5,0,0,1,67.5,234.3V201.407a5.5,5.5,0,0,1,5.482-5.481H210.019a5.5,5.5,0,0,1,5.482,5.481V234.3a5.5,5.5,0,0,1-5.482,5.482"/>
    <path id="Path_29" data-name="Path 29" d="M210.019,196.8a4.61,4.61,0,0,1,4.6,4.6V234.3a4.61,4.61,0,0,1-4.6,4.6H72.982a4.61,4.61,0,0,1-4.6-4.6V201.408a4.61,4.61,0,0,1,4.6-4.6H210.019m0-.877H72.982a5.5,5.5,0,0,0-5.482,5.482V234.3a5.5,5.5,0,0,0,5.482,5.481H210.019A5.5,5.5,0,0,0,215.5,234.3V201.408A5.5,5.5,0,0,0,210.019,195.926Z" fill="#a6a6a6"/>
    <path id="Path_30" data-name="Path 30" d="M185.954,218.192a2.969,2.969,0,0,1-.817,2.2,3.189,3.189,0,0,1-2.416.973,3.436,3.436,0,1,1,0-6.872,3.393,3.393,0,0,1,1.35.276,2.71,2.71,0,0,1,1.029.735l-.578.579a2.221,2.221,0,0,0-1.8-.78,2.627,2.627,0,1,0,1.837,4.52,2.072,2.072,0,0,0,.551-1.332H182.72v-.79h3.187A2.8,2.8,0,0,1,185.954,218.192Z" transform="translate(-66.469 -11.036)" fill="#fff"/>
    <path id="Path_31" data-name="Path 31" d="M185.894,218.132h-.041a2.927,2.927,0,0,1-.8,2.167h0a3.149,3.149,0,0,1-2.387.961,3.4,3.4,0,1,1,0-6.791,3.347,3.347,0,0,1,1.334.272,2.671,2.671,0,0,1,1.014.724l.031-.026-.028-.028-.578.579.028.028.031-.026a2.262,2.262,0,0,0-1.832-.795,2.668,2.668,0,1,0,1.866,4.589,2.11,2.11,0,0,0,.563-1.358l0-.044H182.7v-.709h3.147v-.041l-.04.007a2.731,2.731,0,0,1,.045.489h.081a2.808,2.808,0,0,0-.047-.5l-.006-.033H182.62v.871h2.429v-.041l-.041,0a2.029,2.029,0,0,1-.54,1.307,2.585,2.585,0,1,1-1.808-4.451,2.183,2.183,0,0,1,1.77.766l.028.034.636-.636-.024-.028a2.752,2.752,0,0,0-1.044-.746,3.435,3.435,0,0,0-1.366-.279,3.476,3.476,0,1,0,0,6.953,3.231,3.231,0,0,0,2.446-.986l-.03-.028.029.028a3.008,3.008,0,0,0,.829-2.224Z" transform="translate(-66.41 -10.977)" fill="#fff"/>
    <path id="Path_32" data-name="Path 32" d="M202.537,215.66h-3v2.086h2.7v.79h-2.7v2.086h3v.808H198.7v-6.578h3.84Z" transform="translate(-77.999 -11.252)" fill="#fff"/>
    <path id="Path_33" data-name="Path 33" d="M202.477,215.6v-.041h-3.036v2.167h2.7v.709h-2.7V220.6h3v.727h-3.759v-6.5h3.759v.768h.041v0h.041v-.849H198.6v6.659h3.921v-.889h-3v-2h2.7v-.871h-2.7v-2h3V215.6Z" transform="translate(-77.939 -11.192)" fill="#fff"/>
    <path id="Path_34" data-name="Path 34" d="M213.023,221.43h-.846v-5.77H210.34v-.808h4.52v.808h-1.837Z" transform="translate(-84.921 -11.252)" fill="#fff"/>
    <path id="Path_35" data-name="Path 35" d="M212.964,221.37v-.041h-.805v-5.77h-1.837v-.727h4.439v.727h-1.837v5.81h.041v0H213v-5.729h1.837v-.889h-4.6v.889h1.837v5.77H213v-.041Z" transform="translate(-84.862 -11.192)" fill="#fff"/>
    <rect id="Rectangle_32" data-name="Rectangle 32" width="0.845" height="6.578" transform="translate(133.21 203.6)" fill="#fff"/>
    <path id="Path_36" data-name="Path 36" d="M229.495,221.37h.041v-6.537h.764v6.5h-.8v.041h0v.041h.885v-6.659h-.926v6.659h.041Z" transform="translate(-96.285 -11.192)" fill="#fff"/>
    <path id="Path_37" data-name="Path 37" d="M236.95,221.43H236.1v-5.77h-1.837v-.808h4.52v.808H236.95Z" transform="translate(-99.146 -11.252)" fill="#fff"/>
    <path id="Path_38" data-name="Path 38" d="M236.891,221.37v-.041h-.805v-5.77h-1.837v-.727h4.439v.727H236.85v5.81h.041v0h.041v-5.729h1.837v-.889h-4.6v.889H236v5.77h.927v-.041Z" transform="translate(-99.087 -11.192)" fill="#fff"/>
    <path id="Path_39" data-name="Path 39" d="M258.025,220.364a3.416,3.416,0,0,1-4.823,0,3.554,3.554,0,0,1,0-4.878,3.4,3.4,0,0,1,4.819,0,3.543,3.543,0,0,1,0,4.873Zm-4.2-.551a2.53,2.53,0,0,0,3.574,0,2.8,2.8,0,0,0,0-3.776,2.53,2.53,0,0,0-3.574,0,2.807,2.807,0,0,0,0,3.776Z" transform="translate(-109.827 -11.036)" fill="#fff"/>
    <path id="Path_40" data-name="Path 40" d="M257.966,220.3l-.029-.028a3.375,3.375,0,0,1-4.765,0,3.513,3.513,0,0,1,0-4.821,3.363,3.363,0,0,1,4.76,0,3.5,3.5,0,0,1,0,4.817l.029.028.029.028a3.583,3.583,0,0,0,0-4.93,3.445,3.445,0,0,0-4.877,0,3.594,3.594,0,0,0,0,4.934,3.456,3.456,0,0,0,4.881,0Zm-4.2-.551-.029.029a2.571,2.571,0,0,0,3.631,0,2.844,2.844,0,0,0,0-3.833,2.571,2.571,0,0,0-3.631,0,2.848,2.848,0,0,0,0,3.833l.029-.029.029-.028a2.767,2.767,0,0,1,0-3.719,2.488,2.488,0,0,1,3.516,0,2.763,2.763,0,0,1,0,3.719,2.489,2.489,0,0,1-3.516,0Z" transform="translate(-109.768 -10.977)" fill="#fff"/>
    <path id="Path_41" data-name="Path 41" d="M271.833,221.43v-6.578h1.029l3.2,5.117h.036l-.036-1.268v-3.849h.846v6.578h-.882l-3.345-5.365h-.036l.036,1.268v4.1Z" transform="translate(-121.48 -11.252)" fill="#fff"/>
    <path id="Path_42" data-name="Path 42" d="M271.773,221.37h.04v-6.537h.966l3.2,5.117h.1l-.038-1.309v-3.808h.765v6.5h-.819l-3.345-5.365h-.1l.038,1.309v4.056h-.8v.041h0v.041h.885v-4.139L272.622,216h-.04v.041h.014l3.345,5.365h.945v-6.659h-.927v3.891l.036,1.268h.041v-.041h-.014l-3.2-5.117h-1.092v6.659h.041Z" transform="translate(-121.42 -11.192)" fill="#fff"/>
    <path id="Path_43" data-name="Path 43" d="M208.168,247.174a4.663,4.663,0,1,0,4.68,4.663A4.6,4.6,0,0,0,208.168,247.174Zm0,7.488a2.833,2.833,0,1,1,2.632-2.826A2.7,2.7,0,0,1,208.168,254.663Zm-10.21-7.488a4.663,4.663,0,1,0,4.68,4.663A4.6,4.6,0,0,0,197.957,247.174Zm0,7.488a2.833,2.833,0,1,1,2.632-2.826A2.7,2.7,0,0,1,197.957,254.663ZM185.811,248.6v1.978h4.734a4.129,4.129,0,0,1-1.077,2.49,4.846,4.846,0,0,1-3.656,1.448,5.264,5.264,0,0,1,0-10.527,5.044,5.044,0,0,1,3.568,1.413l1.4-1.4a6.9,6.9,0,0,0-4.963-2,7.242,7.242,0,1,0,0,14.483,6.62,6.62,0,0,0,5.051-2.031,6.536,6.536,0,0,0,1.713-4.627,6.461,6.461,0,0,0-.106-1.236Zm49.672,1.536a4.334,4.334,0,0,0-3.992-2.967,4.431,4.431,0,0,0-4.4,4.663,4.563,4.563,0,0,0,4.627,4.663,4.637,4.637,0,0,0,3.885-2.066l-1.589-1.06a2.662,2.662,0,0,1-2.3,1.289,2.372,2.372,0,0,1-2.261-1.413l6.235-2.579Zm-6.358,1.555a2.557,2.557,0,0,1,2.437-2.72,1.805,1.805,0,0,1,1.731.989Zm-5.069,4.521H226.1V242.512h-2.048Zm-3.356-8h-.071a3.232,3.232,0,0,0-2.455-1.042,4.667,4.667,0,0,0,0,9.325,3.179,3.179,0,0,0,2.455-1.06h.071v.671c0,1.784-.954,2.738-2.49,2.738a2.58,2.58,0,0,1-2.349-1.66l-1.784.742a4.444,4.444,0,0,0,4.133,2.755c2.4,0,4.433-1.413,4.433-4.857v-8.372H220.7Zm-2.349,6.446a2.836,2.836,0,0,1,0-5.652,2.848,2.848,0,0,1,0,5.652Zm26.729-12.151h-4.9v13.705h2.045v-5.193h2.857a4.263,4.263,0,1,0,0-8.513Zm.053,6.606h-2.909v-4.7h2.909a2.35,2.35,0,1,1,0,4.7Zm12.642-1.968a3.841,3.841,0,0,0-3.65,2.1l1.816.758A1.938,1.938,0,0,1,257.81,249a1.97,1.97,0,0,1,2.151,1.763v.141a4.523,4.523,0,0,0-2.133-.529c-1.957,0-3.95,1.076-3.95,3.086a3.166,3.166,0,0,0,3.4,3.015,2.885,2.885,0,0,0,2.609-1.34h.071v1.058h1.975V250.94C261.936,248.507,260.12,247.149,257.775,247.149Zm-.247,7.511c-.67,0-1.6-.335-1.6-1.164,0-1.058,1.164-1.463,2.169-1.463a3.644,3.644,0,0,1,1.869.458A2.48,2.48,0,0,1,257.528,254.66Zm11.6-7.211-2.345,5.942h-.071l-2.433-5.942h-2.2l3.65,8.3-2.081,4.62h2.134l5.625-12.924ZM250.7,256.217h2.045V242.512H250.7Z" transform="translate(-65.97 -27.402)" fill="#fff"/>
    <path id="Path_44" data-name="Path 44" d="M94.469,217.76v0m0-.006v0m.581-1.249a2.117,2.117,0,0,0-.588,1.62v-.16c0-.068,0-.134.005-.2,0,.065-.005.131-.005.2V242.21h0v-.159a2.2,2.2,0,0,0,.507,1.54l.082.078,13.582-13.582L95.051,216.505" transform="translate(-16.03 -12.235)" fill="url(#linear-gradient)"/>
    <path id="Path_45" data-name="Path 45" d="M140.392,244a2.418,2.418,0,0,1-.988.945l-5.364,3.048-.1.059h0l.1-.058,5.364-3.048a2.422,2.422,0,0,0,.988-.946m-6.454-5.167-4.528,4.529,4.528,4.528,5.466-3.106a2.042,2.042,0,0,0,1.149-1.421v0a2.041,2.041,0,0,0-1.149-1.422l-5.466-3.106" transform="translate(-36.807 -25.51)" fill="url(#linear-gradient-2)"/>
    <path id="Path_46" data-name="Path 46" d="M95.8,263.745h0a1.412,1.412,0,0,0,.968.356c.062,0,.126,0,.191-.01a1.886,1.886,0,0,1-.189.01,1.414,1.414,0,0,1-.969-.356m-.074-.071c.023.024.046.046.07.068l-.07-.068M109.378,250h0L95.8,263.585h0l-.081.081h0l.081-.081a1.413,1.413,0,0,0,.969.356,2.521,2.521,0,0,0,1.228-.368l15.914-9.042.1.1-.1-.1L109.378,250" transform="translate(-16.774 -32.15)" fill="url(#linear-gradient-3)"/>
    <path id="Path_47" data-name="Path 47" d="M96.88,215.392a1.41,1.41,0,0,0-.968.356l13.583,13.583,4.528-4.529L98.11,215.761a2.522,2.522,0,0,0-1.23-.369m0-.16h0a2.522,2.522,0,0,1,1.23.369l16.015,9.1h0L98.11,215.6a2.525,2.525,0,0,0-1.229-.368" transform="translate(-16.891 -11.478)" fill="url(#linear-gradient-4)"/>
    <path id="Path_48" data-name="Path 48" d="M95.791,283.774l0,0h0l0,0m2.2-.008a2.7,2.7,0,0,1-1.038.358,2.68,2.68,0,0,0,1.038-.358m-2.278-.067h0l.007.007-.007-.008" transform="translate(-16.774 -52.183)"/>
    <path id="Path_49" data-name="Path 49" d="M113.906,261.171l-15.914,9.042a2.521,2.521,0,0,1-1.228.368,1.413,1.413,0,0,1-.969-.356l-.081.081.007.008.07.068,0,0h0a1.414,1.414,0,0,0,.969.356,1.886,1.886,0,0,0,.189-.01,2.7,2.7,0,0,0,1.038-.358h0l16.015-9.1-.1-.1" transform="translate(-16.774 -38.789)" fill="url(#linear-gradient-5)"/>
    <path id="Path_50" data-name="Path 50" d="M94.463,279.9h0a2.2,2.2,0,0,0,.507,1.54h0a2.195,2.195,0,0,1-.507-1.54" transform="translate(-16.03 -49.924)"/>
    <path id="Path_51" data-name="Path 51" d="M94.463,279.507v.159a2.195,2.195,0,0,0,.507,1.54h0l.082-.082-.082-.078a2.2,2.2,0,0,1-.507-1.54" transform="translate(-16.03 -49.69)" fill="url(#linear-gradient-6)"/>
    <path id="Path_52" data-name="Path 52" d="M95.8,283.5l-.081.081h0l.081-.081h0" transform="translate(-16.774 -52.063)" fill="url(#linear-gradient-7)"/>
    <path id="Path_53" data-name="Path 53" d="M156.655,250h0a1.38,1.38,0,0,1-.161.637,1.379,1.379,0,0,0,.161-.637" transform="translate(-52.909 -32.15)"/>
    <path id="Path_54" data-name="Path 54" d="M147.193,250.007a2.042,2.042,0,0,1-1.149,1.421l-5.466,3.106.1.1,5.364-3.048a2.419,2.419,0,0,0,.988-.945,1.38,1.38,0,0,0,.161-.636" transform="translate(-43.446 -32.152)" fill="url(#linear-gradient-8)"/>
    <path id="Path_55" data-name="Path 55" d="M140.578,261.171h0l.1.1-.1-.1" transform="translate(-43.446 -38.79)" fill="url(#linear-gradient-9)"/>
    <path id="Path_56" data-name="Path 56" d="M113.271,224.7h0l5.364,3.048a1.924,1.924,0,0,1,1.149,1.581h0a1.921,1.921,0,0,0-1.149-1.583l-5.364-3.048m-18.795-7.693v0m0-.009v0m1.545-1.767c-.864,0-1.477.647-1.545,1.765a2.082,2.082,0,0,1,.5-1.33h0c.025-.026.051-.051.077-.076l0,0a1.411,1.411,0,0,1,.963-.356" transform="translate(-16.038 -11.478)" fill="#404040"/>
    <path id="Path_57" data-name="Path 57" d="M94.97,216.189h0a2.082,2.082,0,0,0-.5,1.33v.012c0,.065-.005.131-.005.2v.16a2.117,2.117,0,0,1,.588-1.62l-.08-.081m.081-.079,0,0,0,0h0" transform="translate(-16.03 -12)" fill="url(#linear-gradient-10)"/>
    <path id="Path_58" data-name="Path 58" d="M140.679,238.583l-.1.1,5.466,3.106a2.041,2.041,0,0,1,1.149,1.422,1.924,1.924,0,0,0-1.149-1.581l-5.364-3.048h0" transform="translate(-43.446 -25.36)" fill="url(#linear-gradient-11)"/>
    <path id="Path_59" data-name="Path 59" d="M96.762,215.232h0a1.41,1.41,0,0,0-.963.356l0,0c-.027.024-.052.049-.077.076h0l.08.081a1.41,1.41,0,0,1,.968-.356,2.522,2.522,0,0,1,1.23.369l15.913,9.041.1-.1h0l-16.015-9.1a2.522,2.522,0,0,0-1.23-.369" transform="translate(-16.774 -11.478)" fill="url(#linear-gradient-12)"/>
  </g>
</svg>
