<svg xmlns="http://www.w3.org/2000/svg" xmlns:xlink="http://www.w3.org/1999/xlink" width="24" height="17.292" viewBox="0 0 24 17.292">
  <defs>
    <linearGradient id="linear-gradient" x1="0.5" x2="0.5" y2="1" gradientUnits="objectBoundingBox">
      <stop offset="0" stop-color="#ceac53"/>
      <stop offset="0.515" stop-color="#f6ea98"/>
      <stop offset="1" stop-color="#ceac53"/>
    </linearGradient>
  </defs>
  <g id="id_2_" data-name="id (2)" transform="translate(0 -57.3)">
    <path id="Path_2629" data-name="Path 2629" d="M8.086,80.431A1.686,1.686,0,0,1,6.4,78.745V65.586A1.686,1.686,0,0,1,8.086,63.9H27.965a1.686,1.686,0,0,1,1.686,1.686V78.745a1.686,1.686,0,0,1-1.686,1.686Z" transform="translate(-6.025 -6.214)" fill="url(#linear-gradient)"/>
    <g id="Group_1166" data-name="Group 1166" transform="translate(3.114 61.831)">
      <path id="Path_2630" data-name="Path 2630" d="M80.131,138.47a1.891,1.891,0,1,1,1.323-.55A1.86,1.86,0,0,1,80.131,138.47Z" transform="translate(-76.783 -134.7)" fill="#fff"/>
      <path id="Path_2631" data-name="Path 2631" d="M53.2,219.778v-.831a2.453,2.453,0,0,1,2.447-2.447h1.815a2.465,2.465,0,0,1,1.733.714,2.62,2.62,0,0,1,.714,2.213v.34Z" transform="translate(-53.2 -211.712)" fill="#fff"/>
    </g>
    <path id="Path_2632" data-name="Path 2632" d="M21.94,57.92H2.06A1.459,1.459,0,0,0,.609,59.372V72.531A1.459,1.459,0,0,0,2.06,73.983H21.94a1.459,1.459,0,0,0,1.452-1.452V59.372A1.475,1.475,0,0,0,21.94,57.92ZM7.5,62.674a1.47,1.47,0,0,0-2.06-.012l-.012.012a1.477,1.477,0,0,0,0,2.084h0a1.47,1.47,0,0,0,2.06.012l.012-.012a1.477,1.477,0,0,0,0-2.084ZM6.462,61.62a2.1,2.1,0,0,1,1.475.609h0a2.077,2.077,0,0,1,0,2.95h0l-.023.023a2.085,2.085,0,0,1-2.939-.023h0a2.077,2.077,0,0,1,0-2.95h0L5,62.205A2.145,2.145,0,0,1,6.462,61.62Zm3.43,8.663H3.044a.32.32,0,0,1-.316-.3v-.913a2.828,2.828,0,0,1,2.833-2.833H7.376a2.828,2.828,0,0,1,2.833,2.833v.9a.315.315,0,0,1-.316.316Zm-6.544-.62h6.24v-.6a2.234,2.234,0,0,0-2.213-2.213H5.561a2.234,2.234,0,0,0-2.213,2.213ZM12.656,62.9a.305.305,0,0,1-.293-.328.315.315,0,0,1,.293-.293h8.312a.305.305,0,0,1,.293.328.315.315,0,0,1-.293.293Zm0,1.686a.305.305,0,0,1-.293-.328.315.315,0,0,1,.293-.293h8.312a.305.305,0,0,1,.293.328.315.315,0,0,1-.293.293Zm0,1.674a.305.305,0,0,1-.293-.328.315.315,0,0,1,.293-.293h8.312a.305.305,0,0,1,.293.328.315.315,0,0,1-.293.293Zm0,1.686a.305.305,0,0,1-.293-.328.315.315,0,0,1,.293-.293h8.312a.305.305,0,0,1,.293.328.315.315,0,0,1-.293.293Zm0,1.686a.305.305,0,0,1-.293-.328.315.315,0,0,1,.293-.293h8.312a.305.305,0,0,1,.293.328.315.315,0,0,1-.293.293ZM2.06,57.3H21.94A2.066,2.066,0,0,1,24,59.372V72.531a2.064,2.064,0,0,1-2.06,2.06H2.06A2.064,2.064,0,0,1,0,72.531V59.372A2.081,2.081,0,0,1,2.06,57.3Z" transform="translate(0 0)"/>
  </g>
</svg>
