<svg xmlns="http://www.w3.org/2000/svg" xmlns:xlink="http://www.w3.org/1999/xlink" width="103" height="103" viewBox="0 0 103 103">
  <defs>
    <linearGradient id="linear-gradient" x1="0.5" x2="0.5" y2="1" gradientUnits="objectBoundingBox">
      <stop offset="0" stop-color="#ceac53"/>
      <stop offset="0.531" stop-color="#f6ea98"/>
      <stop offset="1" stop-color="#dec164"/>
    </linearGradient>
  </defs>
  <g id="Group_1340" data-name="Group 1340" transform="translate(-483 -352)">
    <circle id="Ellipse_27" data-name="Ellipse 27" cx="51.5" cy="51.5" r="51.5" transform="translate(483 352)" fill="#f6ea98" opacity="0.35"/>
    <g id="Group_1338" data-name="Group 1338" transform="translate(2361 891)">
      <path id="Path_2813" data-name="Path 2813" d="M53.386,9.31a19.893,19.893,0,0,0-11.532-5.9L43.1,2.163A1.266,1.266,0,1,0,41.311.372L38.1,3.579a1.266,1.266,0,0,0,0,1.791l3.207,3.207A1.266,1.266,0,1,0,43.1,6.785l-.717-.717a17.462,17.462,0,1,1-9.262.685,1.266,1.266,0,1,0-.852-2.385A20.012,20.012,0,1,0,53.386,9.31Z" transform="translate(-1865.993 -509.001)" stroke="#000" stroke-width="1" fill="url(#linear-gradient)"/>
      <g id="Ellipse_121" data-name="Ellipse 121" transform="translate(-1840.986 -498.626)" stroke="#000" stroke-width="1" fill="url(#linear-gradient)">
        <ellipse cx="14" cy="13.5" rx="14" ry="13.5" stroke="none"/>
        <ellipse cx="14" cy="13.5" rx="13.5" ry="13" fill="none"/>
      </g>
      <text id="IQD" transform="translate(-1836.986 -481.626)" fill="#fff" font-size="11" font-family="Arial-BoldMT, Arial" font-weight="700"><tspan x="0" y="0">IQD</tspan></text>
    </g>
  </g>
</svg>
