<svg xmlns="http://www.w3.org/2000/svg" width="37" height="37" viewBox="0 0 37 37">
  <g id="Group_1328" data-name="Group 1328" transform="translate(-3284.033 2835.83)">
    <path id="Path_2742" data-name="Path 2742" d="M18.5,0A18.5,18.5,0,1,1,0,18.5H0A18.447,18.447,0,0,1,18.395,0Z" transform="translate(3284.032 -2835.83)" fill="#f65c03"/>
    <path id="Path_2796" data-name="Path 2796" d="M1.985-5.28V2.243l-.4,5.3H-.808l-.4-5.3V-5.28ZM.389,9.766a2.16,2.16,0,0,1,1.553.556,1.932,1.932,0,0,1,.584,1.468,1.886,1.886,0,0,1-.584,1.453,2.194,2.194,0,0,1-1.553.541,2.154,2.154,0,0,1-1.525-.541A1.886,1.886,0,0,1-1.72,11.79a1.932,1.932,0,0,1,.584-1.468A2.121,2.121,0,0,1,.389,9.766Z" transform="translate(3302.473 -2821.856)" fill="#fff"/>
  </g>
</svg>
