<svg xmlns="http://www.w3.org/2000/svg" xmlns:xlink="http://www.w3.org/1999/xlink" width="103" height="103" viewBox="0 0 103 103">
  <defs>
    <linearGradient id="linear-gradient" x1="0.5" x2="0.5" y2="1" gradientUnits="objectBoundingBox">
      <stop offset="0" stop-color="#ceac53"/>
      <stop offset="0.515" stop-color="#f6ea98"/>
      <stop offset="1" stop-color="#ceac53"/>
    </linearGradient>
  </defs>
  <g id="Group_1239" data-name="Group 1239" transform="translate(-483 -352)">
    <circle id="Ellipse_27" data-name="Ellipse 27" cx="51.5" cy="51.5" r="51.5" transform="translate(483 352)" fill="#f6ea98" opacity="0.35"/>
    <g id="user_10_" data-name="user(10)" transform="translate(510 379)">
      <path id="Path_2687" data-name="Path 2687" d="M32.144,54.823h0A23.628,23.628,0,0,1,7.6,32.143h0A23.628,23.628,0,0,1,30.285,7.6h0a23.628,23.628,0,0,1,24.539,22.68h0A23.628,23.628,0,0,1,32.144,54.823Z" transform="translate(-6.865 -6.864)" fill="url(#linear-gradient)"/>
      <path id="Path_2688" data-name="Path 2688" d="M108.985,59.623h0A23.611,23.611,0,0,0,97.049,40.008a23.526,23.526,0,0,1,5.674,14.453h0A23.628,23.628,0,0,1,80.043,79h0a23.515,23.515,0,0,1-12.6-3.065A23.585,23.585,0,0,0,86.3,84.162h0A23.628,23.628,0,0,0,108.985,59.623Z" transform="translate(-61.025 -36.203)" fill="url(#linear-gradient)"/>
      <circle id="Ellipse_79" data-name="Ellipse 79" cx="5.493" cy="5.493" r="5.493" transform="translate(18.824 11.972)" fill="#f6ea98"/>
      <path id="Path_2689" data-name="Path 2689" d="M149.469,281.842H126.7a.69.69,0,0,1-.7-.717v-3.542A6.55,6.55,0,0,1,132.526,271h11.118a6.542,6.542,0,0,1,6.516,6.584v3.542A.683.683,0,0,1,149.469,281.842Z" transform="translate(-114.015 -245.222)" fill="#f6ea98"/>
      <path id="Path_2690" data-name="Path 2690" d="M43.878,9.8a.722.722,0,1,0-1.157.863A22.907,22.907,0,0,1,24.35,47.256a22.906,22.906,0,0,1-16.2-39.1,22.906,22.906,0,0,1,32.166-.225.722.722,0,0,0,1.007-1.035A24.35,24.35,0,0,0,7.132,41.568,24.35,24.35,0,0,0,48.7,24.35,24.148,24.148,0,0,0,43.878,9.8Z"/>
      <path id="Path_2691" data-name="Path 2691" d="M196.53,130.707a6.215,6.215,0,1,0-6.215-6.215A6.222,6.222,0,0,0,196.53,130.707Zm0-10.987a4.771,4.771,0,1,1-4.771,4.771A4.777,4.777,0,0,1,196.53,119.721Z" transform="translate(-172.213 -107.027)"/>
      <path id="Path_2692" data-name="Path 2692" d="M120.164,268.425a.719.719,0,1,0-1.257-.7,7.29,7.29,0,0,0-.907,3.524v3.543a1.48,1.48,0,0,0,1.461,1.478H142.23a1.472,1.472,0,0,0,1.451-1.478v-3.543A7.257,7.257,0,0,0,136.4,264H125.286a7.289,7.289,0,0,0-4.537,1.568.712.712,0,0,0-.115,1.006.723.723,0,0,0,1.014.119,5.773,5.773,0,0,1,3.637-1.266H136.4a5.841,5.841,0,0,1,5.85,5.823v3.542c0,.008-.017.052-.025.052h-3.209v-3.462a.713.713,0,1,0-1.427,0v3.462H124.278v-3.462a.713.713,0,1,0-1.427,0v3.462h-3.39c-.008,0-.034-.044-.034-.051v-3.543A5.853,5.853,0,0,1,120.164,268.425Z" transform="translate(-106.776 -238.889)"/>
    </g>
  </g>
</svg>
