<svg xmlns="http://www.w3.org/2000/svg" xmlns:xlink="http://www.w3.org/1999/xlink" width="40.014" height="43.221" viewBox="0 0 40.014 43.221">
  <defs>
    <linearGradient id="linear-gradient" x1="0.5" x2="0.5" y2="1" gradientUnits="objectBoundingBox">
      <stop offset="0" stop-color="#ceac53"/>
      <stop offset="0.531" stop-color="#f6ea98"/>
      <stop offset="1" stop-color="#dec164"/>
    </linearGradient>
  </defs>
  <g id="Group_1338" data-name="Group 1338" transform="translate(1847 509)">
    <path id="Path_2813" data-name="Path 2813" d="M53.386,9.31a19.893,19.893,0,0,0-11.532-5.9L43.1,2.163A1.266,1.266,0,1,0,41.311.372L38.1,3.579a1.266,1.266,0,0,0,0,1.791l3.207,3.207A1.266,1.266,0,1,0,43.1,6.785l-.717-.717a17.462,17.462,0,1,1-9.262.685,1.266,1.266,0,1,0-.852-2.385A20.012,20.012,0,1,0,53.386,9.31Z" transform="translate(-1865.993 -509.001)" fill="url(#linear-gradient)"/>
    <ellipse id="Ellipse_121" data-name="Ellipse 121" cx="14" cy="13.5" rx="14" ry="13.5" transform="translate(-1840.986 -498.626)" fill="url(#linear-gradient)"/>
    <text id="IQD" transform="translate(-1836.986 -481.626)" fill="#fff" font-size="11" font-family="Arial-BoldMT, Arial" font-weight="700"><tspan x="0" y="0">IQD</tspan></text>
  </g>
</svg>
