<svg xmlns="http://www.w3.org/2000/svg" xmlns:xlink="http://www.w3.org/1999/xlink" width="42" height="45.231" viewBox="0 0 42 45.231">
  <defs>
    <linearGradient id="linear-gradient" x1="0.5" x2="0.5" y2="1" gradientUnits="objectBoundingBox">
      <stop offset="0" stop-color="#ceac53"/>
      <stop offset="0.515" stop-color="#f6ea98"/>
      <stop offset="1" stop-color="#ceac53"/>
    </linearGradient>
  </defs>
  <g id="file" transform="translate(-48 -32)">
    <path id="Path_2788" data-name="Path 2788" d="M320,47.825V43.313l6.935,6.935h-4.512A2.426,2.426,0,0,1,320,47.825Z" transform="translate(-244.538 -10.171)" fill="url(#linear-gradient)"/>
    <path id="Path_2789" data-name="Path 2789" d="M281.692,288a9.692,9.692,0,1,0,9.692,9.692A9.7,9.7,0,0,0,281.692,288Zm5.654,10.5h-5.654a.824.824,0,0,1-.086,0,.808.808,0,0,1-.538-.29c-.487-.582-1.5-1.792-2.383-2.858l-1.653-1.985a.808.808,0,1,1,1.242-1.034l3.8,4.555h5.275a.808.808,0,1,1,0,1.615Z" transform="translate(-201.385 -230.154)" fill="url(#linear-gradient)"/>
    <path id="Path_2790" data-name="Path 2790" d="M77.885,41.692a4.043,4.043,0,0,1-4.038-4.038V32H50.423A2.426,2.426,0,0,0,48,34.423V74.808a2.426,2.426,0,0,0,2.423,2.423H74.489A11.306,11.306,0,0,1,83.538,56.7V41.692ZM52.038,40.077h9.692a.808.808,0,0,1,0,1.615H52.038a.808.808,0,1,1,0-1.615Zm0,4.846h4.846a.808.808,0,1,1,0,1.615H52.038a.808.808,0,0,1,0-1.615Zm0,4.846H68.192a.808.808,0,0,1,0,1.615H52.038a.808.808,0,1,1,0-1.615Zm0,4.846h9.692a.808.808,0,0,1,0,1.615H52.038a.808.808,0,1,1,0-1.615ZM58.5,70.769H52.038a.808.808,0,0,1,0-1.615H58.5a.808.808,0,0,1,0,1.615Zm-7.269-5.654a.807.807,0,0,1,.808-.808h4.846a.808.808,0,1,1,0,1.615H52.038A.807.807,0,0,1,51.231,65.115Zm13.731,5.654H61.731a.808.808,0,1,1,0-1.615h3.231a.808.808,0,0,1,0,1.615Zm0-4.846H60.115a.808.808,0,1,1,0-1.615h4.846a.808.808,0,0,1,0,1.615Zm1.615-4.846H52.038a.808.808,0,1,1,0-1.615H66.577a.808.808,0,0,1,0,1.615Zm4.846-4.846H64.962a.808.808,0,1,1,0-1.615h6.462a.808.808,0,0,1,0,1.615ZM79.5,51.385H71.423a.808.808,0,1,1,0-1.615H79.5a.808.808,0,1,1,0,1.615Zm0-4.846H60.115a.808.808,0,1,1,0-1.615H79.5a.808.808,0,0,1,0,1.615Z" fill="url(#linear-gradient)"/>
  </g>
</svg>
