<svg id="travel_1_" data-name="travel (1)" xmlns="http://www.w3.org/2000/svg" xmlns:xlink="http://www.w3.org/1999/xlink" width="52.656" height="55.885" viewBox="0 0 52.656 55.885">
  <defs>
    <linearGradient id="linear-gradient" x1="0.5" x2="0.5" y2="1" gradientUnits="objectBoundingBox">
      <stop offset="0" stop-color="#ceac53"/>
      <stop offset="0.531" stop-color="#f6ea98"/>
      <stop offset="1" stop-color="#dec164"/>
    </linearGradient>
  </defs>
  <path id="Path_2763" data-name="Path 2763" d="M464.194,201.212a.791.791,0,0,0-1.138.916,24.8,24.8,0,0,1,.75,3.466.794.794,0,0,0,.782.679.839.839,0,0,0,.112-.008.791.791,0,0,0,.671-.894,26.383,26.383,0,0,0-.8-3.688A.786.786,0,0,0,464.194,201.212Z" transform="translate(-412.866 -179.461)" fill="url(#linear-gradient)"/>
  <path id="Path_2764" data-name="Path 2764" d="M431.51,135.288a.733.733,0,0,0-.171,1.022,25.018,25.018,0,0,1,1.852,3.034.733.733,0,0,0,1.3-.673,26.451,26.451,0,0,0-1.961-3.212.732.732,0,0,0-1.022-.172Z" transform="translate(-384.707 -121.091)" fill="url(#linear-gradient)"/>
  <path id="Path_2765" data-name="Path 2765" d="M337.649,197.144a2.118,2.118,0,0,0-.823,1.2l-.373,1.457a2.116,2.116,0,0,0,.747,2.192,3.513,3.513,0,0,1,1.259,3.521l-.754,3.361a3.492,3.492,0,0,1-.952,1.72l-.657.651a2.106,2.106,0,0,0-.615,1.733l.4,3.674a15.165,15.165,0,0,0,2.97-20.366Z" transform="translate(-299.994 -175.188)" fill="url(#linear-gradient)"/>
  <path id="Path_2766" data-name="Path 2766" d="M152.471,158.922a2.112,2.112,0,0,0,.576-1.041l.754-3.361a2.126,2.126,0,0,0-.762-2.13,3.5,3.5,0,0,1-1.235-3.623l.373-1.457a3.5,3.5,0,0,1,1.359-1.982l1.174-.836A15.17,15.17,0,0,0,143.827,139l.668,4.064a2.4,2.4,0,0,1-1.052,2.4l-2.667,1.747a1.013,1.013,0,0,0-.442,1.041l.359,1.878a1.021,1.021,0,0,0,.557.725l1.874.9a2.4,2.4,0,0,1,1.32,2.585l-.683,3.792a2.409,2.409,0,0,1-.44,1.011,2.376,2.376,0,0,1-1.913.962,2.467,2.467,0,0,1-.254-.013,2.378,2.378,0,0,1-1.927-1.375l-.687-1.478a1.02,1.02,0,0,0-.922-.588H134.84a1.012,1.012,0,0,0-.584.184l-1.867,1.312a2.4,2.4,0,0,1-1.932.37l-2.145-.509a15.182,15.182,0,0,0,22.973,8.893l-.487-4.462a3.479,3.479,0,0,1,1.016-2.864Z" transform="translate(-116.682 -124.496)" fill="url(#linear-gradient)"/>
  <path id="Path_2767" data-name="Path 2767" d="M127.815,156.94l1.868-1.311a2.386,2.386,0,0,1,1.378-.435h2.777a2.406,2.406,0,0,1,2.174,1.387l.687,1.478a1.017,1.017,0,0,0,1.922-.248l.683-3.792a1.019,1.019,0,0,0-.559-1.1l-1.874-.9a2.407,2.407,0,0,1-1.315-1.711l-.359-1.878a2.39,2.39,0,0,1,1.041-2.456l2.667-1.747a1.017,1.017,0,0,0,.446-1.015l-.707-4.3a15.194,15.194,0,0,0-14.424,17.524L127,157.1A1.015,1.015,0,0,0,127.815,156.94Z" transform="translate(-112.902 -124.422)" fill="url(#linear-gradient)"/>
  <path id="Path_2768" data-name="Path 2768" d="M304.094,30.324a1.175,1.175,0,0,0,.931-.459.689.689,0,0,0,.111-.211l1.147-3.573,3.174-2.022a.687.687,0,0,0,.176-.16,1.179,1.179,0,0,0-.974-1.9l-3.69-.493-1.846-1.426L305.66,16.8a1.116,1.116,0,0,0-.2-1.565l-.794-.614a1.546,1.546,0,0,0-1.954.057l-3.1,2.694-4.9-3.783a2.817,2.817,0,0,0-3.444,4.459l4.9,3.783-1.823,3.678a1.545,1.545,0,0,0,.439,1.9l.794.614a1.107,1.107,0,0,0,.68.233,1.132,1.132,0,0,0,.145-.009,1.108,1.108,0,0,0,.741-.425l2.536-3.283,1.846,1.426,1.416,3.437a1.181,1.181,0,0,0,1.152.92ZM295.82,17.868a.818.818,0,1,1-.148-1.148h0a.819.819,0,0,1,.148,1.148Zm2.02,1.56a.818.818,0,1,1-.148-1.148h0a.818.818,0,0,1,.147,1.148Zm2.019,1.56a.818.818,0,1,1-.148-1.148h0a.818.818,0,0,1,.147,1.148Zm2.02,1.56a.818.818,0,1,1-.147-1.148h0a.819.819,0,0,1,.147,1.148Z" transform="translate(-259.914 -12.999)" fill="url(#linear-gradient)"/>
  <path id="Path_2769" data-name="Path 2769" d="M275.6,481.527a.678.678,0,0,0-.158.019,24.964,24.964,0,0,1-3.515.587.675.675,0,0,0,.127,1.345,26.376,26.376,0,0,0,3.705-.619.675.675,0,0,0-.159-1.332Z" transform="translate(-243.228 -427.596)" fill="url(#linear-gradient)"/>
  <path id="Path_2770" data-name="Path 2770" d="M407.469,402.821a.674.674,0,0,0-.948.113,25.233,25.233,0,0,1-2.4,2.637.675.675,0,1,0,.932.978,26.546,26.546,0,0,0,2.528-2.779A.676.676,0,0,0,407.469,402.821Z" transform="translate(-360.558 -357.821)" fill="url(#linear-gradient)"/>
  <path id="Path_2771" data-name="Path 2771" d="M471.684,264.9a.676.676,0,0,0-.675.675,25.32,25.32,0,0,1-.251,3.557.675.675,0,0,0,1.337.19,26.66,26.66,0,0,0,.265-3.747.676.676,0,0,0-.676-.675Z" transform="translate(-419.703 -235.904)" fill="url(#linear-gradient)"/>
  <path id="Path_2772" data-name="Path 2772" d="M201.935,482.131a24.981,24.981,0,0,1-3.515-.587.675.675,0,0,0-.317,1.313,26.359,26.359,0,0,0,3.706.619.675.675,0,1,0,.127-1.345Z" transform="translate(-177.982 -427.594)" fill="url(#linear-gradient)"/>
  <path id="Path_2773" data-name="Path 2773" d="M450.6,337.838a.676.676,0,0,0-.859.417,24.857,24.857,0,0,1-1.405,3.277.675.675,0,1,0,1.2.62,26.28,26.28,0,0,0,1.481-3.455A.675.675,0,0,0,450.6,337.838Z" transform="translate(-399.798 -300.414)" fill="url(#linear-gradient)"/>
  <path id="Path_2774" data-name="Path 2774" d="M346.611,452.416a.671.671,0,0,0-.365.107,24.973,24.973,0,0,1-3.125,1.709.676.676,0,0,0,.281,1.29.668.668,0,0,0,.28-.062,26.281,26.281,0,0,0,3.294-1.8.675.675,0,0,0-.367-1.243Z" transform="translate(-306.416 -401.836)" fill="url(#linear-gradient)"/>
  <path id="Path_2775" data-name="Path 2775" d="M40.782,338.252a.675.675,0,0,0-1.277.442,26.264,26.264,0,0,0,1.481,3.453.675.675,0,0,0,1.2-.62A24.912,24.912,0,0,1,40.782,338.252Z" transform="translate(-38.065 -300.41)" fill="url(#linear-gradient)"/>
  <path id="Path_2776" data-name="Path 2776" d="M133.8,454.219a25.041,25.041,0,0,1-3.128-1.712.672.672,0,0,0-.364-.108.691.691,0,0,0-.144.016.675.675,0,0,0-.223,1.228,26.39,26.39,0,0,0,3.3,1.8.675.675,0,0,0,.562-1.228Z" transform="translate(-117.852 -401.821)" fill="url(#linear-gradient)"/>
  <path id="Path_2777" data-name="Path 2777" d="M76.146,402.917a.671.671,0,0,0-.451-.253.684.684,0,0,0-.081,0,.675.675,0,0,0-.529,1.094,26.574,26.574,0,0,0,2.527,2.779.675.675,0,0,0,.932-.977A25.209,25.209,0,0,1,76.146,402.917Z" transform="translate(-69.453 -357.806)" fill="url(#linear-gradient)"/>
  <path id="Path_2778" data-name="Path 2778" d="M31.81,196.864a.675.675,0,0,0,.79-.536,24.888,24.888,0,0,1,.92-3.443.675.675,0,1,0-1.277-.442,26.278,26.278,0,0,0-.97,3.63A.676.676,0,0,0,31.81,196.864Z" transform="translate(-30.803 -171.385)" fill="url(#linear-gradient)"/>
  <path id="Path_2779" data-name="Path 2779" d="M28.876,269.127a25.284,25.284,0,0,1-.251-3.556.675.675,0,1,0-1.351,0,26.636,26.636,0,0,0,.265,3.744.675.675,0,1,0,1.337-.189Z" transform="translate(-27.274 -235.901)" fill="url(#linear-gradient)"/>
  <path id="Path_2780" data-name="Path 2780" d="M60.249,127.271a.676.676,0,0,0-.948.113,26.486,26.486,0,0,0-2.109,3.11.675.675,0,1,0,1.169.677,25.082,25.082,0,0,1,2-2.951A.676.676,0,0,0,60.249,127.271Z" transform="translate(-53.668 -113.99)" fill="url(#linear-gradient)"/>
  <path id="Path_2781" data-name="Path 2781" d="M171.805,48.371a.672.672,0,0,0-.351-.1.683.683,0,0,0-.16.019,26.189,26.189,0,0,0-3.58,1.143.675.675,0,0,0,.5,1.254,24.883,24.883,0,0,1,3.394-1.084.675.675,0,0,0,.193-1.233Z" transform="translate(-151.174 -44.212)" fill="url(#linear-gradient)"/>
  <path id="Path_2782" data-name="Path 2782" d="M108.377,77.7a.676.676,0,0,0-.934-.2,26.529,26.529,0,0,0-3.005,2.253.675.675,0,0,0,.885,1.02,25.145,25.145,0,0,1,2.852-2.137A.676.676,0,0,0,108.377,77.7Z" transform="translate(-95.35 -69.978)" fill="url(#linear-gradient)"/>
  <path id="Path_2783" data-name="Path 2783" d="M240.177,42.075a.677.677,0,0,0-.42,1.179.66.66,0,0,0,.482.17q.592-.028,1.187-.028c.794,0,1.59.037,2.377.111a.675.675,0,0,0,.127-1.345A26.707,26.707,0,0,0,240.177,42.075Z" transform="translate(-215.101 -38.702)" fill="url(#linear-gradient)"/>
</svg>
