<svg xmlns="http://www.w3.org/2000/svg" xmlns:xlink="http://www.w3.org/1999/xlink" width="365" height="399" viewBox="0 0 365 399">
  <defs>
    <clipPath id="clip-path">
      <rect id="Rectangle_29605" data-name="Rectangle 29605" width="349" height="384" transform="translate(-0.183 -0.19)" fill="none"/>
    </clipPath>
    <linearGradient id="linear-gradient" x1="0.5" x2="0.5" y2="1" gradientUnits="objectBoundingBox">
      <stop offset="0" stop-color="#4b2e74"/>
      <stop offset="1" stop-color="#4c2d5e"/>
    </linearGradient>
  </defs>
  <g id="Group_71086" data-name="Group 71086" transform="translate(-1363 -217)">
    <g id="Group_71064" data-name="Group 71064" transform="translate(1363.183 217.19)">
      <rect id="Rectangle_29604" data-name="Rectangle 29604" width="160.535" height="20.235" transform="translate(178.125 357.167)" fill="#ffae01"/>
      <g id="Group_2382" data-name="Group 2382">
        <g id="Group_2381" data-name="Group 2381" clip-path="url(#clip-path)">
          <path id="Path_77183" data-name="Path 77183" d="M144,287.927a.413.413,0,0,1-.413-.413V277.085a.413.413,0,1,1,.826,0v10.429a.413.413,0,0,1-.413.413" transform="translate(44.103 84.984)" fill="#fff"/>
          <path id="Path_77184" data-name="Path 77184" d="M152.249,287.927a.413.413,0,0,1-.413-.413V277.085a.413.413,0,1,1,.826,0v10.429a.413.413,0,0,1-.413.413" transform="translate(46.639 84.984)" fill="#fff"/>
          <path id="Path_77185" data-name="Path 77185" d="M160.5,287.927a.413.413,0,0,1-.413-.413V277.085a.413.413,0,1,1,.826,0v10.429a.413.413,0,0,1-.413.413" transform="translate(49.174 84.984)" fill="#fff"/>
          <path id="Path_77186" data-name="Path 77186" d="M168.758,287.927a.413.413,0,0,1-.413-.413V277.085a.413.413,0,1,1,.826,0v10.429a.412.412,0,0,1-.413.413" transform="translate(51.71 84.984)" fill="#fff"/>
          <path id="Path_77187" data-name="Path 77187" d="M177.013,287.927a.412.412,0,0,1-.413-.413V277.085a.413.413,0,1,1,.826,0v10.429a.412.412,0,0,1-.413.413" transform="translate(54.245 84.984)" fill="#fff"/>
          <path id="Path_77188" data-name="Path 77188" d="M185.267,287.927a.412.412,0,0,1-.413-.413V277.085a.413.413,0,1,1,.826,0v10.429a.412.412,0,0,1-.413.413" transform="translate(56.781 84.984)" fill="#fff"/>
          <path id="Path_77189" data-name="Path 77189" d="M193.522,287.927a.412.412,0,0,1-.413-.413V277.085a.413.413,0,1,1,.826,0v10.429a.412.412,0,0,1-.413.413" transform="translate(59.316 84.984)" fill="#fff"/>
          <path id="Path_77190" data-name="Path 77190" d="M201.777,287.927a.413.413,0,0,1-.414-.413V277.085a.413.413,0,1,1,.826,0v10.429a.412.412,0,0,1-.412.413" transform="translate(61.852 84.984)" fill="#fff"/>
          <path id="Path_77191" data-name="Path 77191" d="M210.031,287.927a.412.412,0,0,1-.413-.413V277.085a.413.413,0,1,1,.826,0v10.429a.412.412,0,0,1-.413.413" transform="translate(64.387 84.984)" fill="#fff"/>
          <path id="Path_77192" data-name="Path 77192" d="M218.286,287.927a.413.413,0,0,1-.414-.413V277.085a.414.414,0,0,1,.827,0v10.429a.413.413,0,0,1-.413.413" transform="translate(66.923 84.984)" fill="#fff"/>
          <path id="Path_77193" data-name="Path 77193" d="M226.54,287.927a.412.412,0,0,1-.413-.413V277.085a.413.413,0,1,1,.826,0v10.429a.412.412,0,0,1-.413.413" transform="translate(69.458 84.984)" fill="#fff"/>
          <path id="Path_77194" data-name="Path 77194" d="M234.8,287.927a.412.412,0,0,1-.413-.413V277.085a.413.413,0,1,1,.826,0v10.429a.412.412,0,0,1-.413.413" transform="translate(71.994 84.984)" fill="#fff"/>
          <path id="Path_77195" data-name="Path 77195" d="M243.049,287.927a.412.412,0,0,1-.413-.413V277.085a.413.413,0,1,1,.826,0v10.429a.412.412,0,0,1-.413.413" transform="translate(74.529 84.984)" fill="#fff"/>
          <path id="Path_77196" data-name="Path 77196" d="M251.3,287.927a.411.411,0,0,1-.413-.413V277.085a.413.413,0,1,1,.826,0v10.429a.412.412,0,0,1-.413.413" transform="translate(77.065 84.984)" fill="#fff"/>
        </g>
      </g>
      <rect id="Rectangle_29606" data-name="Rectangle 29606" width="160.535" height="20.235" transform="translate(165.037 316.697)" fill="#ffae01"/>
      <g id="Group_2384" data-name="Group 2384">
        <g id="Group_2383" data-name="Group 2383" clip-path="url(#clip-path)">
          <path id="Path_77197" data-name="Path 77197" d="M133.982,256.969a.413.413,0,0,1-.413-.413V246.127a.413.413,0,1,1,.826,0v10.429a.413.413,0,0,1-.413.413" transform="translate(41.028 75.475)" fill="#fff"/>
          <path id="Path_77198" data-name="Path 77198" d="M142.237,256.969a.413.413,0,0,1-.413-.413V246.127a.413.413,0,1,1,.826,0v10.429a.413.413,0,0,1-.413.413" transform="translate(43.563 75.475)" fill="#fff"/>
          <path id="Path_77199" data-name="Path 77199" d="M150.492,256.969a.413.413,0,0,1-.414-.413V246.127a.413.413,0,0,1,.826,0v10.429a.413.413,0,0,1-.412.413" transform="translate(46.099 75.475)" fill="#fff"/>
          <path id="Path_77200" data-name="Path 77200" d="M158.746,256.969a.413.413,0,0,1-.413-.413V246.127a.413.413,0,0,1,.826,0v10.429a.413.413,0,0,1-.413.413" transform="translate(48.634 75.475)" fill="#fff"/>
          <path id="Path_77201" data-name="Path 77201" d="M167,256.969a.413.413,0,0,1-.413-.413V246.127a.413.413,0,0,1,.826,0v10.429a.413.413,0,0,1-.413.413" transform="translate(51.17 75.475)" fill="#fff"/>
          <path id="Path_77202" data-name="Path 77202" d="M175.255,256.969a.413.413,0,0,1-.413-.413V246.127a.413.413,0,0,1,.826,0v10.429a.412.412,0,0,1-.413.413" transform="translate(53.705 75.475)" fill="#fff"/>
          <path id="Path_77203" data-name="Path 77203" d="M183.51,256.969a.412.412,0,0,1-.413-.413V246.127a.413.413,0,0,1,.826,0v10.429a.412.412,0,0,1-.413.413" transform="translate(56.241 75.475)" fill="#fff"/>
          <path id="Path_77204" data-name="Path 77204" d="M191.764,256.969a.412.412,0,0,1-.413-.413V246.127a.413.413,0,0,1,.826,0v10.429a.412.412,0,0,1-.413.413" transform="translate(58.776 75.475)" fill="#fff"/>
          <path id="Path_77205" data-name="Path 77205" d="M200.019,256.969a.412.412,0,0,1-.413-.413V246.127a.413.413,0,0,1,.826,0v10.429a.412.412,0,0,1-.413.413" transform="translate(61.312 75.475)" fill="#fff"/>
          <path id="Path_77206" data-name="Path 77206" d="M208.274,256.969a.412.412,0,0,1-.413-.413V246.127a.413.413,0,1,1,.826,0v10.429a.412.412,0,0,1-.413.413" transform="translate(63.848 75.475)" fill="#fff"/>
          <path id="Path_77207" data-name="Path 77207" d="M216.528,256.969a.412.412,0,0,1-.413-.413V246.127a.413.413,0,1,1,.826,0v10.429a.412.412,0,0,1-.413.413" transform="translate(66.383 75.475)" fill="#fff"/>
          <path id="Path_77208" data-name="Path 77208" d="M224.783,256.969a.412.412,0,0,1-.413-.413V246.127a.413.413,0,1,1,.826,0v10.429a.412.412,0,0,1-.413.413" transform="translate(68.919 75.475)" fill="#fff"/>
          <path id="Path_77209" data-name="Path 77209" d="M233.038,256.969a.412.412,0,0,1-.413-.413V246.127a.413.413,0,1,1,.826,0v10.429a.411.411,0,0,1-.413.413" transform="translate(71.454 75.475)" fill="#fff"/>
          <path id="Path_77210" data-name="Path 77210" d="M241.292,256.969a.412.412,0,0,1-.413-.413V246.127a.413.413,0,1,1,.826,0v10.429a.411.411,0,0,1-.413.413" transform="translate(73.989 75.475)" fill="#fff"/>
        </g>
      </g>
      <rect id="Rectangle_29608" data-name="Rectangle 29608" width="160.535" height="20.235" transform="translate(157.015 255.993)" fill="#ffae01"/>
      <g id="Group_2386" data-name="Group 2386">
        <g id="Group_2385" data-name="Group 2385" clip-path="url(#clip-path)">
          <path id="Path_77211" data-name="Path 77211" d="M127.846,210.531a.413.413,0,0,1-.413-.413V199.685a.413.413,0,0,1,.826,0v10.432a.413.413,0,0,1-.413.413" transform="translate(39.143 61.209)" fill="#fff"/>
          <path id="Path_77212" data-name="Path 77212" d="M136.1,210.531a.413.413,0,0,1-.413-.413V199.685a.413.413,0,0,1,.826,0v10.432a.413.413,0,0,1-.413.413" transform="translate(41.679 61.209)" fill="#fff"/>
          <path id="Path_77213" data-name="Path 77213" d="M144.355,210.531a.413.413,0,0,1-.413-.413V199.685a.413.413,0,0,1,.826,0v10.432a.413.413,0,0,1-.413.413" transform="translate(44.214 61.209)" fill="#fff"/>
          <path id="Path_77214" data-name="Path 77214" d="M152.61,210.531a.413.413,0,0,1-.413-.413V199.685a.413.413,0,0,1,.826,0v10.432a.412.412,0,0,1-.413.413" transform="translate(46.75 61.209)" fill="#fff"/>
          <path id="Path_77215" data-name="Path 77215" d="M160.864,210.531a.413.413,0,0,1-.413-.413V199.685a.413.413,0,1,1,.826,0v10.432a.412.412,0,0,1-.413.413" transform="translate(49.285 61.209)" fill="#fff"/>
          <path id="Path_77216" data-name="Path 77216" d="M169.119,210.531a.412.412,0,0,1-.413-.413V199.685a.413.413,0,0,1,.826,0v10.432a.412.412,0,0,1-.413.413" transform="translate(51.821 61.209)" fill="#fff"/>
          <path id="Path_77217" data-name="Path 77217" d="M177.373,210.531a.412.412,0,0,1-.413-.413V199.685a.413.413,0,0,1,.826,0v10.432a.412.412,0,0,1-.413.413" transform="translate(54.356 61.209)" fill="#fff"/>
          <path id="Path_77218" data-name="Path 77218" d="M185.628,210.531a.412.412,0,0,1-.413-.413V199.685a.413.413,0,0,1,.826,0v10.432a.412.412,0,0,1-.413.413" transform="translate(56.891 61.209)" fill="#fff"/>
          <path id="Path_77219" data-name="Path 77219" d="M193.883,210.531a.413.413,0,0,1-.414-.413V199.685a.414.414,0,0,1,.827,0v10.432a.413.413,0,0,1-.413.413" transform="translate(59.427 61.209)" fill="#fff"/>
          <path id="Path_77220" data-name="Path 77220" d="M202.137,210.531a.412.412,0,0,1-.413-.413V199.685a.413.413,0,1,1,.826,0v10.432a.412.412,0,0,1-.413.413" transform="translate(61.962 61.209)" fill="#fff"/>
          <path id="Path_77221" data-name="Path 77221" d="M210.392,210.531a.412.412,0,0,1-.413-.413V199.685a.413.413,0,1,1,.826,0v10.432a.412.412,0,0,1-.413.413" transform="translate(64.498 61.209)" fill="#fff"/>
          <path id="Path_77222" data-name="Path 77222" d="M218.646,210.531a.412.412,0,0,1-.413-.413V199.685a.413.413,0,0,1,.826,0v10.432a.412.412,0,0,1-.413.413" transform="translate(67.033 61.209)" fill="#fff"/>
          <path id="Path_77223" data-name="Path 77223" d="M226.9,210.531a.412.412,0,0,1-.413-.413V199.685a.413.413,0,1,1,.826,0v10.432a.412.412,0,0,1-.413.413" transform="translate(69.569 61.209)" fill="#fff"/>
          <path id="Path_77224" data-name="Path 77224" d="M235.155,210.531a.411.411,0,0,1-.413-.413V199.685a.413.413,0,0,1,.826,0v10.432a.412.412,0,0,1-.413.413" transform="translate(72.104 61.209)" fill="#fff"/>
        </g>
      </g>
      <rect id="Rectangle_29610" data-name="Rectangle 29610" width="160.535" height="20.235" transform="translate(148.571 235.758)" fill="#ffae01"/>
      <g id="Group_2388" data-name="Group 2388">
        <g id="Group_2387" data-name="Group 2387" clip-path="url(#clip-path)">
          <path id="Path_77225" data-name="Path 77225" d="M121.387,195.049a.413.413,0,0,1-.413-.413V184.207a.413.413,0,1,1,.826,0v10.429a.413.413,0,0,1-.413.413" transform="translate(37.159 56.455)" fill="#fff"/>
          <path id="Path_77226" data-name="Path 77226" d="M129.641,195.049a.413.413,0,0,1-.413-.413V184.207a.413.413,0,1,1,.826,0v10.429a.413.413,0,0,1-.413.413" transform="translate(39.694 56.455)" fill="#fff"/>
          <path id="Path_77227" data-name="Path 77227" d="M137.9,195.049a.413.413,0,0,1-.413-.413V184.207a.413.413,0,1,1,.826,0v10.429a.413.413,0,0,1-.413.413" transform="translate(42.23 56.455)" fill="#fff"/>
          <path id="Path_77228" data-name="Path 77228" d="M146.15,195.049a.412.412,0,0,1-.413-.413V184.207a.413.413,0,1,1,.826,0v10.429a.413.413,0,0,1-.413.413" transform="translate(44.765 56.455)" fill="#fff"/>
          <path id="Path_77229" data-name="Path 77229" d="M154.405,195.049a.412.412,0,0,1-.413-.413V184.207a.413.413,0,1,1,.826,0v10.429a.413.413,0,0,1-.413.413" transform="translate(47.301 56.455)" fill="#fff"/>
          <path id="Path_77230" data-name="Path 77230" d="M162.66,195.049a.412.412,0,0,1-.413-.413V184.207a.413.413,0,1,1,.826,0v10.429a.412.412,0,0,1-.413.413" transform="translate(49.837 56.455)" fill="#fff"/>
          <path id="Path_77231" data-name="Path 77231" d="M170.914,195.049a.412.412,0,0,1-.413-.413V184.207a.413.413,0,1,1,.826,0v10.429a.412.412,0,0,1-.413.413" transform="translate(52.372 56.455)" fill="#fff"/>
          <path id="Path_77232" data-name="Path 77232" d="M179.169,195.049a.412.412,0,0,1-.413-.413V184.207a.413.413,0,1,1,.826,0v10.429a.412.412,0,0,1-.413.413" transform="translate(54.908 56.455)" fill="#fff"/>
          <path id="Path_77233" data-name="Path 77233" d="M187.424,195.049a.413.413,0,0,1-.414-.413V184.207a.414.414,0,0,1,.827,0v10.429a.413.413,0,0,1-.413.413" transform="translate(57.443 56.455)" fill="#fff"/>
          <path id="Path_77234" data-name="Path 77234" d="M195.678,195.049a.412.412,0,0,1-.413-.413V184.207a.413.413,0,1,1,.826,0v10.429a.412.412,0,0,1-.413.413" transform="translate(59.979 56.455)" fill="#fff"/>
          <path id="Path_77235" data-name="Path 77235" d="M203.933,195.049a.412.412,0,0,1-.413-.413V184.207a.413.413,0,1,1,.826,0v10.429a.412.412,0,0,1-.413.413" transform="translate(62.514 56.455)" fill="#fff"/>
          <path id="Path_77236" data-name="Path 77236" d="M212.187,195.049a.412.412,0,0,1-.413-.413V184.207a.413.413,0,1,1,.826,0v10.429a.412.412,0,0,1-.413.413" transform="translate(65.05 56.455)" fill="#fff"/>
          <path id="Path_77237" data-name="Path 77237" d="M220.442,195.049a.412.412,0,0,1-.413-.413V184.207a.413.413,0,1,1,.826,0v10.429a.412.412,0,0,1-.413.413" transform="translate(67.585 56.455)" fill="#fff"/>
          <path id="Path_77238" data-name="Path 77238" d="M228.7,195.049a.412.412,0,0,1-.413-.413V184.207a.413.413,0,1,1,.826,0v10.429a.411.411,0,0,1-.413.413" transform="translate(70.121 56.455)" fill="#fff"/>
        </g>
      </g>
      <rect id="Rectangle_29612" data-name="Rectangle 29612" width="160.535" height="20.235" transform="translate(180.446 276.227)" fill="#ffae01"/>
      <g id="Group_2390" data-name="Group 2390">
        <g id="Group_2389" data-name="Group 2389" clip-path="url(#clip-path)">
          <path id="Path_77239" data-name="Path 77239" d="M145.771,226.009a.413.413,0,0,1-.413-.413V215.167a.413.413,0,1,1,.826,0V225.6a.413.413,0,0,1-.413.413" transform="translate(44.649 65.965)" fill="#fff"/>
          <path id="Path_77240" data-name="Path 77240" d="M154.026,226.009a.413.413,0,0,1-.413-.413V215.167a.413.413,0,1,1,.826,0V225.6a.413.413,0,0,1-.413.413" transform="translate(47.184 65.965)" fill="#fff"/>
          <path id="Path_77241" data-name="Path 77241" d="M162.28,226.009a.413.413,0,0,1-.413-.413V215.167a.413.413,0,1,1,.826,0V225.6a.413.413,0,0,1-.413.413" transform="translate(49.72 65.965)" fill="#fff"/>
          <path id="Path_77242" data-name="Path 77242" d="M170.535,226.009a.413.413,0,0,1-.413-.413V215.167a.413.413,0,0,1,.826,0V225.6a.413.413,0,0,1-.413.413" transform="translate(52.255 65.965)" fill="#fff"/>
          <path id="Path_77243" data-name="Path 77243" d="M178.789,226.009a.412.412,0,0,1-.413-.413V215.167a.413.413,0,1,1,.826,0V225.6a.412.412,0,0,1-.413.413" transform="translate(54.791 65.965)" fill="#fff"/>
          <path id="Path_77244" data-name="Path 77244" d="M187.044,226.009a.412.412,0,0,1-.413-.413V215.167a.413.413,0,0,1,.826,0V225.6a.412.412,0,0,1-.413.413" transform="translate(57.326 65.965)" fill="#fff"/>
          <path id="Path_77245" data-name="Path 77245" d="M195.3,226.009a.412.412,0,0,1-.413-.413V215.167a.413.413,0,0,1,.826,0V225.6a.412.412,0,0,1-.413.413" transform="translate(59.862 65.965)" fill="#fff"/>
          <path id="Path_77246" data-name="Path 77246" d="M203.553,226.009a.412.412,0,0,1-.413-.413V215.167a.413.413,0,0,1,.826,0V225.6a.412.412,0,0,1-.413.413" transform="translate(62.397 65.965)" fill="#fff"/>
          <path id="Path_77247" data-name="Path 77247" d="M211.807,226.009a.412.412,0,0,1-.413-.413V215.167a.413.413,0,0,1,.826,0V225.6a.412.412,0,0,1-.413.413" transform="translate(64.933 65.965)" fill="#fff"/>
          <path id="Path_77248" data-name="Path 77248" d="M220.062,226.009a.412.412,0,0,1-.413-.413V215.167a.413.413,0,0,1,.826,0V225.6a.412.412,0,0,1-.413.413" transform="translate(67.468 65.965)" fill="#fff"/>
          <path id="Path_77249" data-name="Path 77249" d="M228.316,226.009a.412.412,0,0,1-.413-.413V215.167a.413.413,0,0,1,.826,0V225.6a.412.412,0,0,1-.413.413" transform="translate(70.004 65.965)" fill="#fff"/>
          <path id="Path_77250" data-name="Path 77250" d="M236.571,226.009a.412.412,0,0,1-.413-.413V215.167a.413.413,0,0,1,.826,0V225.6a.412.412,0,0,1-.413.413" transform="translate(72.539 65.965)" fill="#fff"/>
          <path id="Path_77251" data-name="Path 77251" d="M244.826,226.009a.413.413,0,0,1-.414-.413V215.167a.413.413,0,0,1,.826,0V225.6a.412.412,0,0,1-.412.413" transform="translate(75.075 65.965)" fill="#fff"/>
          <path id="Path_77252" data-name="Path 77252" d="M253.08,226.009a.412.412,0,0,1-.413-.413V215.167a.413.413,0,0,1,.826,0V225.6a.411.411,0,0,1-.413.413" transform="translate(77.61 65.965)" fill="#fff"/>
        </g>
      </g>
      <rect id="Rectangle_29614" data-name="Rectangle 29614" width="160.537" height="20.235" transform="translate(170.313 296.462)" fill="#ffae01"/>
      <g id="Group_2392" data-name="Group 2392">
        <g id="Group_2391" data-name="Group 2391" clip-path="url(#clip-path)">
          <path id="Path_77253" data-name="Path 77253" d="M138.019,241.488a.413.413,0,0,1-.413-.413V230.646a.413.413,0,1,1,.826,0v10.429a.413.413,0,0,1-.413.413" transform="translate(42.268 70.719)" fill="#fff"/>
          <path id="Path_77254" data-name="Path 77254" d="M146.274,241.488a.413.413,0,0,1-.413-.413V230.646a.413.413,0,1,1,.826,0v10.429a.413.413,0,0,1-.413.413" transform="translate(44.803 70.719)" fill="#fff"/>
          <path id="Path_77255" data-name="Path 77255" d="M154.529,241.488a.413.413,0,0,1-.413-.413V230.646a.413.413,0,1,1,.826,0v10.429a.413.413,0,0,1-.413.413" transform="translate(47.339 70.719)" fill="#fff"/>
          <path id="Path_77256" data-name="Path 77256" d="M162.783,241.488a.413.413,0,0,1-.413-.413V230.646a.413.413,0,1,1,.826,0v10.429a.412.412,0,0,1-.413.413" transform="translate(49.874 70.719)" fill="#fff"/>
          <path id="Path_77257" data-name="Path 77257" d="M171.038,241.488a.413.413,0,0,1-.413-.413V230.646a.413.413,0,1,1,.826,0v10.429a.412.412,0,0,1-.413.413" transform="translate(52.41 70.719)" fill="#fff"/>
          <path id="Path_77258" data-name="Path 77258" d="M179.292,241.488a.413.413,0,0,1-.413-.413V230.646a.413.413,0,1,1,.826,0v10.429a.412.412,0,0,1-.413.413" transform="translate(54.945 70.719)" fill="#fff"/>
          <path id="Path_77259" data-name="Path 77259" d="M187.547,241.488a.412.412,0,0,1-.413-.413V230.646a.413.413,0,1,1,.826,0v10.429a.412.412,0,0,1-.413.413" transform="translate(57.481 70.719)" fill="#fff"/>
          <path id="Path_77260" data-name="Path 77260" d="M195.8,241.488a.412.412,0,0,1-.413-.413V230.646a.413.413,0,1,1,.826,0v10.429a.412.412,0,0,1-.413.413" transform="translate(60.017 70.719)" fill="#fff"/>
          <path id="Path_77261" data-name="Path 77261" d="M204.056,241.488a.412.412,0,0,1-.413-.413V230.646a.413.413,0,1,1,.826,0v10.429a.412.412,0,0,1-.413.413" transform="translate(62.552 70.719)" fill="#fff"/>
          <path id="Path_77262" data-name="Path 77262" d="M212.311,241.488a.412.412,0,0,1-.413-.413V230.646a.413.413,0,1,1,.826,0v10.429a.412.412,0,0,1-.413.413" transform="translate(65.088 70.719)" fill="#fff"/>
          <path id="Path_77263" data-name="Path 77263" d="M220.566,241.488a.413.413,0,0,1-.414-.413V230.646a.414.414,0,1,1,.827,0v10.429a.413.413,0,0,1-.413.413" transform="translate(67.623 70.719)" fill="#fff"/>
          <path id="Path_77264" data-name="Path 77264" d="M228.82,241.488a.412.412,0,0,1-.413-.413V230.646a.413.413,0,1,1,.826,0v10.429a.412.412,0,0,1-.413.413" transform="translate(70.159 70.719)" fill="#fff"/>
          <path id="Path_77265" data-name="Path 77265" d="M237.075,241.488a.412.412,0,0,1-.413-.413V230.646a.413.413,0,1,1,.826,0v10.429a.412.412,0,0,1-.413.413" transform="translate(72.694 70.719)" fill="#fff"/>
          <path id="Path_77266" data-name="Path 77266" d="M245.329,241.488a.412.412,0,0,1-.413-.413V230.646a.413.413,0,1,1,.826,0v10.429a.411.411,0,0,1-.413.413" transform="translate(75.23 70.719)" fill="#fff"/>
        </g>
      </g>
      <rect id="Rectangle_29616" data-name="Rectangle 29616" width="160.535" height="20.235" transform="translate(188.098 336.932)" fill="#ffae01"/>
      <g id="Group_2394" data-name="Group 2394">
        <g id="Group_2393" data-name="Group 2393" clip-path="url(#clip-path)">
          <path id="Path_77267" data-name="Path 77267" d="M151.626,272.448a.413.413,0,0,1-.414-.413V261.606a.413.413,0,1,1,.826,0v10.429a.413.413,0,0,1-.412.413" transform="translate(46.447 80.229)" fill="#fff"/>
          <path id="Path_77268" data-name="Path 77268" d="M159.88,272.448a.413.413,0,0,1-.413-.413V261.606a.413.413,0,1,1,.826,0v10.429a.413.413,0,0,1-.413.413" transform="translate(48.983 80.229)" fill="#fff"/>
          <path id="Path_77269" data-name="Path 77269" d="M168.135,272.448a.413.413,0,0,1-.413-.413V261.606a.413.413,0,1,1,.826,0v10.429a.413.413,0,0,1-.413.413" transform="translate(51.518 80.229)" fill="#fff"/>
          <path id="Path_77270" data-name="Path 77270" d="M176.389,272.448a.413.413,0,0,1-.413-.413V261.606a.413.413,0,0,1,.826,0v10.429a.412.412,0,0,1-.413.413" transform="translate(54.054 80.229)" fill="#fff"/>
          <path id="Path_77271" data-name="Path 77271" d="M184.644,272.448a.412.412,0,0,1-.413-.413V261.606a.413.413,0,1,1,.826,0v10.429a.412.412,0,0,1-.413.413" transform="translate(56.589 80.229)" fill="#fff"/>
          <path id="Path_77272" data-name="Path 77272" d="M192.9,272.448a.412.412,0,0,1-.413-.413V261.606a.413.413,0,1,1,.826,0v10.429a.412.412,0,0,1-.413.413" transform="translate(59.125 80.229)" fill="#fff"/>
          <path id="Path_77273" data-name="Path 77273" d="M201.153,272.448a.412.412,0,0,1-.413-.413V261.606a.413.413,0,1,1,.826,0v10.429a.412.412,0,0,1-.413.413" transform="translate(61.66 80.229)" fill="#fff"/>
          <path id="Path_77274" data-name="Path 77274" d="M209.408,272.448a.412.412,0,0,1-.413-.413V261.606a.413.413,0,1,1,.826,0v10.429a.412.412,0,0,1-.413.413" transform="translate(64.196 80.229)" fill="#fff"/>
          <path id="Path_77275" data-name="Path 77275" d="M217.663,272.448a.413.413,0,0,1-.414-.413V261.606a.414.414,0,0,1,.827,0v10.429a.413.413,0,0,1-.413.413" transform="translate(66.731 80.229)" fill="#fff"/>
          <path id="Path_77276" data-name="Path 77276" d="M225.917,272.448a.412.412,0,0,1-.413-.413V261.606a.413.413,0,1,1,.826,0v10.429a.412.412,0,0,1-.413.413" transform="translate(69.267 80.229)" fill="#fff"/>
          <path id="Path_77277" data-name="Path 77277" d="M234.172,272.448a.412.412,0,0,1-.413-.413V261.606a.413.413,0,1,1,.826,0v10.429a.412.412,0,0,1-.413.413" transform="translate(71.803 80.229)" fill="#fff"/>
          <path id="Path_77278" data-name="Path 77278" d="M242.426,272.448a.412.412,0,0,1-.413-.413V261.606a.413.413,0,1,1,.826,0v10.429a.412.412,0,0,1-.413.413" transform="translate(74.338 80.229)" fill="#fff"/>
          <path id="Path_77279" data-name="Path 77279" d="M250.681,272.448a.412.412,0,0,1-.413-.413V261.606a.413.413,0,1,1,.826,0v10.429a.412.412,0,0,1-.413.413" transform="translate(76.873 80.229)" fill="#fff"/>
          <path id="Path_77280" data-name="Path 77280" d="M258.936,272.448a.411.411,0,0,1-.413-.413V261.606a.413.413,0,1,1,.826,0v10.429a.412.412,0,0,1-.413.413" transform="translate(79.409 80.229)" fill="#fff"/>
          <path id="Path_77281" data-name="Path 77281" d="M260.435,196.348H125.371a.413.413,0,1,1,0-.826H260.435a.413.413,0,1,1,0,.826" transform="translate(38.383 60.057)" fill="#ff6d00"/>
          <path id="Path_77282" data-name="Path 77282" d="M282.789,227.308H143.994a.413.413,0,1,1,0-.826H282.789a.413.413,0,0,1,0,.826" transform="translate(44.103 69.567)" fill="#ff6d00"/>
          <path id="Path_77283" data-name="Path 77283" d="M276.007,242.787H137.212a.414.414,0,0,1,0-.827H276.007a.414.414,0,0,1,0,.827" transform="translate(42.02 74.322)" fill="#ff6d00"/>
          <path id="Path_77284" data-name="Path 77284" d="M277.541,258.269H147.507a.414.414,0,0,1,0-.827H277.541a.414.414,0,0,1,0,.827" transform="translate(45.182 79.077)" fill="#ff6d00"/>
          <path id="Path_77285" data-name="Path 77285" d="M288.256,273.748H147.669a.414.414,0,0,1,0-.828H288.256a.414.414,0,0,1,0,.828" transform="translate(45.232 83.832)" fill="#ff6d00"/>
          <path id="Path_77286" data-name="Path 77286" d="M269.484,211.83H141.439a.413.413,0,0,1,0-.826H269.484a.413.413,0,1,1,0,.826" transform="translate(43.318 64.813)" fill="#ff6d00"/>
          <path id="Path_77287" data-name="Path 77287" d="M89.623,261.82c-.86.992-1.686,2.084-2.514,3.208a88.981,88.981,0,0,0-6.813,11.08A236.984,236.984,0,0,0,69.35,300.613S20.107,306.665,0,290.493c7.805-16.073,36.18-4.663,56.619-21.033a42.177,42.177,0,0,0,10.153-12.005,53.772,53.772,0,0,0,3.7-7.44Z" transform="translate(0 76.795)" fill="#ff827c"/>
          <path id="Path_77288" data-name="Path 77288" d="M80.3,271.538c-3.208,6.02-6.052,12.468-8.367,18.09-.959,2.315-1.818,4.465-2.579,6.416,0,0-49.244,6.052-69.35-10.12a14.464,14.464,0,0,1,2.48-3.6c10.219-10.682,35.486-2.481,54.138-17.429,5.324,5.158,17,7.308,23.679,6.647" transform="translate(0 81.365)" fill="#4b2e71"/>
          <path id="Path_77289" data-name="Path 77289" d="M71.931,285.532c-.961,2.315-1.82,4.464-2.58,6.416,0,0-49.244,6.052-69.35-10.12a14.537,14.537,0,0,1,2.48-3.6c11.179,6.614,37.8,13.989,69.451,7.308" transform="translate(0 85.461)" fill="#c46bfb"/>
          <path id="Path_77290" data-name="Path 77290" d="M18.745,285.865a.161.161,0,0,1-.043,0,.412.412,0,0,1-.369-.451,10.815,10.815,0,0,0-5.155-10.371.414.414,0,0,1,.426-.71,11.651,11.651,0,0,1,5.553,11.164.414.414,0,0,1-.412.371" transform="translate(3.986 84.246)" fill="#fff"/>
          <path id="Path_77291" data-name="Path 77291" d="M17.535,280.437a.414.414,0,0,1-.021-.827,82.2,82.2,0,0,0,37.771-11.415.408.408,0,0,1,.566.145.412.412,0,0,1-.144.565,83.039,83.039,0,0,1-38.151,11.533Z" transform="translate(5.259 82.361)" fill="#fff"/>
          <path id="Path_77292" data-name="Path 77292" d="M73.933,261.82c-.86.992-1.686,2.084-2.514,3.208l-20.338-7.574a53.772,53.772,0,0,0,3.7-7.44Z" transform="translate(15.69 76.795)" fill="#0d005a"/>
          <path id="Path_77293" data-name="Path 77293" d="M149.706,95.087S138.413,86.3,128.6,90.813s-16.069,26.993-16.069,26.993,3.324,1.9,6.65-4.907,4.037-7.729,4.037-7.729,3.246,7.333,9.1,3.375c-.08,6.016,2.454,9.261,5.778,8.865-1.187-4.274-2.217-16.8,5.857-13.623Z" transform="translate(34.565 27.499)" fill="#ff827c"/>
          <path id="Path_77294" data-name="Path 77294" d="M120.687,102.749a.413.413,0,0,1-.4-.307,14.329,14.329,0,0,1,.6-7.948.413.413,0,1,1,.752.342,13.566,13.566,0,0,0-.557,7.392.414.414,0,0,1-.293.507.419.419,0,0,1-.106.013" transform="translate(36.855 28.951)" fill="#e43d4e"/>
          <path id="Path_77295" data-name="Path 77295" d="M129.754,105.685a.414.414,0,0,1-.247-.746c1.957-1.452,2.6-2.912,2.216-3.545a1.275,1.275,0,0,0-.844-.665,2.717,2.717,0,0,0-1.925.775,3.06,3.06,0,0,1-3.252.433c-.725-.359-1.937-1.367-1.9-4.089a.414.414,0,0,1,.414-.408h0a.415.415,0,0,1,.409.421c-.024,1.678.489,2.864,1.441,3.336a2.227,2.227,0,0,0,2.375-.346,3.316,3.316,0,0,1,2.582-.933,2.079,2.079,0,0,1,1.405,1.047c.71,1.169-.265,3.033-2.429,4.64a.417.417,0,0,1-.247.081" transform="translate(38.027 29.93)" fill="#e43d4e"/>
          <path id="Path_77296" data-name="Path 77296" d="M185.895,103.826,149.163,73.862a18.9,18.9,0,0,1-.847-28.548L176.66,19.242l16.677,25.594-10.17,9.576a8.689,8.689,0,0,0,.783,13.307l13.4,9.931Z" transform="translate(43.683 5.91)" fill="#4b2e71"/>
          <path id="Path_77297" data-name="Path 77297" d="M192.887,4.8c2.458-3.719,5.567-5.54,7.812-4.512s0,3.916,0,3.916,2.72-4.12,6.044-1.8-.474,5.961-.474,5.961,3.562-3.8,5.857-1.741,0,5.013,0,5.013,3.4-.9,4.512,2.033-3.578,6.761-3.578,6.761l-16.138-3.531Z" transform="translate(59.248 0)" fill="#ff827c"/>
          <path id="Path_77298" data-name="Path 77298" d="M174.071,90.045a.413.413,0,0,1-.342-.646c1.434-2.086,2.758-7.28,1.221-12.3-1.344-4.392-4.5-7.6-9.388-9.52-5.338-2.1-8.3-4.493-9.049-7.312-.96-3.588,1.77-7.405,4.9-11.327,2.017-2.528,5.18-7.308,3.664-10.919-1.048-2.494-4.162-4.018-9.256-4.535a.413.413,0,0,1-.367-.452.4.4,0,0,1,.452-.369c5.416.549,8.758,2.242,9.934,5.033,1.246,2.971-.1,7.144-3.782,11.759-2.995,3.749-5.61,7.379-4.752,10.6.678,2.549,3.478,4.757,8.555,6.757,5.06,1.992,8.474,5.468,9.876,10.047,1.618,5.281.2,10.787-1.327,13.006a.411.411,0,0,1-.342.18" transform="translate(47.75 10.032)" fill="#6893e6"/>
          <path id="Path_77299" data-name="Path 77299" d="M172.776,33.506c-6.953-1.805-9.274-8.455-6.531-13.2s7.018-5.278,10.317-3.167C174.794,5.314,188.093-.175,195.8,7.213c1.689-6.544,14.987-5.805,15.3,7.81,10.6-5.1,23.854,13.51,6.72,31.72A10.3,10.3,0,0,0,215,54.72C215.4,59.238,216.064,65,216.064,65L197.182,44.318Z" transform="translate(50.72 0.987)" fill="#0d005a"/>
          <path id="Path_77300" data-name="Path 77300" d="M195.583,61.949l1.753-4.729-.2.132a36.794,36.794,0,0,1-10.219,3.837,5.659,5.659,0,0,1-6.184-2.91c-5.192-9.889-9.061-21.794-9.755-30.492,3.141.927,10.979-.893,13.294-5.953.464,2.778,5.457,6.019,9.26,1.191-1.025,6.582,5.92,11.575,5.92,11.575s5.788-8.5,9.657-2.546c3.9,5.92-1.158,9.822-1.158,9.822l11.84,24.373H194Z" transform="translate(52.518 6.706)" fill="#ff827c"/>
          <path id="Path_77301" data-name="Path 77301" d="M175.727,33.187a.413.413,0,0,1-.4-.516,7.446,7.446,0,0,1,5.784-5.452.428.428,0,0,1,.484.329.417.417,0,0,1-.329.485,6.611,6.611,0,0,0-5.138,4.844.416.416,0,0,1-.4.31" transform="translate(53.85 8.359)" fill="#0d005a"/>
          <path id="Path_77302" data-name="Path 77302" d="M194.44,36.912a.411.411,0,0,1-.391-.553,11.681,11.681,0,0,1,4.431-5.745.414.414,0,0,1,.465.685,10.84,10.84,0,0,0-4.115,5.338.418.418,0,0,1-.391.275" transform="translate(59.598 9.381)" fill="#0d005a"/>
          <path id="Path_77303" data-name="Path 77303" d="M174.691,33.585c-2.595,2.388-3.591,6.341-3.969,8.78a2.053,2.053,0,0,0,1.992,2.354,18.932,18.932,0,0,0,6.919-1.081Z" transform="translate(52.432 10.316)" fill="#ff827c"/>
          <path id="Path_77304" data-name="Path 77304" d="M181.323,46.2a9.8,9.8,0,0,0,4.512-6.017,3.763,3.763,0,0,1-4.512,6.017" transform="translate(55.696 12.344)" fill="#e43d4e"/>
          <path id="Path_77305" data-name="Path 77305" d="M183.851,36.939a4.987,4.987,0,0,1-.728.729,8.392,8.392,0,0,1-6.349,2.149,9.908,9.908,0,0,1,8.9-10.317,8.448,8.448,0,0,1-1.818,7.439" transform="translate(54.295 9.061)" fill="#fff"/>
          <path id="Path_77306" data-name="Path 77306" d="M183.124,36.929a8.4,8.4,0,0,1-6.35,2.15,9.8,9.8,0,0,1,2.613-7.178,5.884,5.884,0,0,1,3.737,5.027" transform="translate(54.295 9.799)" fill="#0d005a"/>
          <path id="Path_77307" data-name="Path 77307" d="M197.87,45.312s-.363,5.821-8.069,9.425l1.753-4.728a35.253,35.253,0,0,0,6.316-4.7" transform="translate(58.3 13.918)" fill="#0d005a"/>
          <path id="Path_77308" data-name="Path 77308" d="M174.3,22.785a12.879,12.879,0,0,1-3.953-.81,9.018,9.018,0,0,0-3.6-.659c-.214.068-.43-.136-.456-.365a.413.413,0,0,1,.365-.456,9.354,9.354,0,0,1,3.94.691c2.316.742,4.7,1.515,7.659-.617,2.251-1.625,2.631-4.3,3.033-7.128.578-4.056,1.175-8.255,7.544-9.175a.407.407,0,0,1,.468.353.415.415,0,0,1-.352.468c-5.755.829-6.282,4.54-6.84,8.47-.41,2.878-.83,5.852-3.369,7.684a7.384,7.384,0,0,1-4.44,1.544" transform="translate(51.079 1.308)" fill="#404add"/>
          <path id="Path_77309" data-name="Path 77309" d="M214.637,44.616a.41.41,0,0,1-.365-.224c-.055-.106-1.318-2.739,2.205-10.7,1.5-3.387,1.476-6.239-.064-8.029-1.414-1.647-4.021-2.186-6.812-1.427-6.243,1.7-10.4.145-13.486-5.051a5.618,5.618,0,0,0-3.924-2.991c-2.461-.38-5.588,1.089-9.111,4.234-5.749,5.138-10.619,6.95-15.328,5.716a.41.41,0,0,1-.3-.5.427.427,0,0,1,.5-.3c4.434,1.166,9.052-.6,14.572-5.529,3.762-3.362,7.06-4.838,9.785-4.438a6.389,6.389,0,0,1,4.508,3.388c2.9,4.884,6.663,6.272,12.557,4.676,3.123-.852,6.039-.2,7.657,1.684,1.761,2.044,1.829,5.205.194,8.9-3.316,7.493-2.234,9.974-2.221,10a.414.414,0,0,1-.191.549.43.43,0,0,1-.184.042" transform="translate(51.432 4.703)" fill="#404add"/>
          <path id="Path_77310" data-name="Path 77310" d="M200.017,24.381a6.969,6.969,0,0,1-4.983-2.26c-2.888-2.83-1.75-6.278-.652-9.616.978-2.965,1.9-5.765,0-7.987a.411.411,0,0,1,.046-.582.4.4,0,0,1,.58.046c2.207,2.574,1.17,5.729.162,8.782-1.065,3.239-2.073,6.3.45,8.768,3.762,3.691,7.276,1.618,10.67-.388,2.141-1.263,4.175-2.484,6.035-1.891,1.163.354,2.119,1.359,2.929,3.068a.414.414,0,0,1-.2.552.422.422,0,0,1-.553-.2,4.445,4.445,0,0,0-2.422-2.637c-1.518-.464-3.388.647-5.374,1.818s-4.273,2.523-6.689,2.523" transform="translate(59.347 1.178)" fill="#404add"/>
          <path id="Path_77311" data-name="Path 77311" d="M188.723,12.4l-.116,0a1.591,1.591,0,0,1-1.489-1.076c-.38-1.021.013-2.778,1.748-4.392l.358-.333.268.41c1.227,1.871,1.589,3.452,1.021,4.457a1.961,1.961,0,0,1-1.79.936m.349-4.508c-1.15,1.234-1.43,2.468-1.179,3.142a.769.769,0,0,0,.746.536,1.252,1.252,0,0,0,1.153-.514c.178-.312.439-1.227-.72-3.165" transform="translate(57.435 2.025)" fill="#404add"/>
          <path id="Path_77312" data-name="Path 77312" d="M199.285,17.8a2.377,2.377,0,0,1-1.078-.281,1.6,1.6,0,0,1-.9-1.6c.086-1.085,1.179-2.512,3.426-3.255l.465-.152.075.484c.329,2.213-.007,3.8-.944,4.477a1.758,1.758,0,0,1-1.039.329m1.23-4.176c-1.559.639-2.332,1.64-2.387,2.358a.768.768,0,0,0,.452.8,1.2,1.2,0,0,0,1.26.017c.294-.21.914-.931.675-3.175" transform="translate(60.603 3.842)" fill="#404add"/>
          <path id="Path_77313" data-name="Path 77313" d="M173.355,45.237c-.195,0-.378,0-.557-.007a2.5,2.5,0,0,1-1.851-.894,2.468,2.468,0,0,1-.539-1.935c.354-2.288,1.359-6.5,4.1-9.023a.406.406,0,0,1,.584.022.411.411,0,0,1-.022.584c-2.554,2.354-3.5,6.362-3.843,8.542a1.609,1.609,0,0,0,.358,1.278,1.677,1.677,0,0,0,1.24.6,18.141,18.141,0,0,0,6.766-1.056.4.4,0,0,1,.529.246.412.412,0,0,1-.246.529,19.2,19.2,0,0,1-6.519,1.114" transform="translate(52.335 10.218)" fill="#0d005a"/>
          <path id="Path_77314" data-name="Path 77314" d="M234.937,70.286V60.35a5.305,5.305,0,0,0-5.306-5.306H200.917a5.305,5.305,0,0,0-5.306,5.306V72.329A65.876,65.876,0,0,0,180.194,112.1a40.1,40.1,0,0,0-12.738-4.278,19.212,19.212,0,0,0-10.67,1.422l-10.621-6.132a2.952,2.952,0,0,0-4.034,1.081L135,116.541a2.955,2.955,0,0,0,1.081,4.035l9.006,5.2a18.763,18.763,0,0,0,4.416,13.9c8.593,9.925,23.95,18.479,37.991,21.967.216.054.444.088.663.139l-.663,3.661,50.293,13.932c6.422-25.13,8.9-56.77,6.137-76.494l1.357-3.587a23.786,23.786,0,0,0-10.344-29.01" transform="translate(41.345 16.908)" fill="#4b2e71"/>
          <path id="Path_77315" data-name="Path 77315" d="M230.222,148.4c-7.457,0-8.92-4.192-10.749-9.421-1.608-4.6-3.429-9.814-9.808-13.964-6.6-4.29-14.64-.256-22.417,3.655-8.527,4.277-17.334,8.708-23.589,1.17-6.282-7.578-3.2-14.572-.724-20.2,2.238-5.086,4.008-9.1-.771-12.333a.414.414,0,0,1-.11-.575.419.419,0,0,1,.575-.11c5.348,3.617,3.268,8.345,1.063,13.351-2.51,5.7-5.353,12.153.607,19.333,5.833,7.04,13.968,2.945,22.579-1.38,7.983-4.017,16.244-8.163,23.24-3.606,6.614,4.3,8.568,9.891,10.137,14.384,1.893,5.41,3.274,9.334,11.3,8.821a.428.428,0,0,1,.439.387.416.416,0,0,1-.387.439q-.727.045-1.386.046" transform="translate(49.133 29.659)" fill="#6893e6"/>
          <path id="Path_77316" data-name="Path 77316" d="M216.669,126.606a.418.418,0,0,1-.342-.18c-2.435-3.569-3.391-11.585.275-20.747,1.957-4.893,1.541-9.686-1.017-11.649-2.7-2.082-7.29-.92-12.919,3.272-8.566,6.372-13.022,5.016-14.915,3.639-2.716-1.976-3.448-6.259-1.869-10.912,1.944-5.74,1.9-10.141-.12-12.08-1.7-1.63-4.783-1.595-9.159.091a.412.412,0,0,1-.3-.769c4.706-1.822,8.074-1.792,10.029.081,3.1,2.97,1.537,9.382.329,12.941-1.46,4.3-.843,8.218,1.575,9.979,2.9,2.122,7.987.791,13.936-3.637,8.03-5.975,12.163-4.616,13.913-3.263,2.894,2.226,3.408,7.294,1.282,12.615-3.795,9.482-2.293,17.14-.358,19.972a.413.413,0,0,1-.343.646" transform="translate(54.073 23.322)" fill="#6893e6"/>
          <path id="Path_77317" data-name="Path 77317" d="M186.592,123.933h-.026a.41.41,0,0,1-.371-.3C185,119.3,175.228,110.007,170.518,106.6a.415.415,0,0,1-.093-.578.41.41,0,0,1,.578-.094c3.9,2.826,13.3,11.388,15.609,16.469l18.282-44a.408.408,0,0,1,.54-.222.415.415,0,0,1,.224.54l-18.683,44.963a.417.417,0,0,1-.382.255" transform="translate(52.325 24.002)" fill="#fff"/>
          <path id="Path_77318" data-name="Path 77318" d="M150.44,100.507a.394.394,0,0,1-.205-.055l-8.867-5.064a.412.412,0,0,1-.154-.562.4.4,0,0,1,.563-.156l8.868,5.065a.413.413,0,0,1-.205.771" transform="translate(43.359 29.061)" fill="#6893e6"/>
          <path id="Path_77319" data-name="Path 77319" d="M148.506,103.938a.391.391,0,0,1-.205-.055l-8.866-5.068a.414.414,0,0,1-.154-.565.408.408,0,0,1,.565-.152l8.866,5.068a.413.413,0,0,1-.205.771" transform="translate(42.765 30.115)" fill="#6893e6"/>
          <path id="Path_77320" data-name="Path 77320" d="M146.541,107.073a.391.391,0,0,1-.205-.055l-8.865-5.067a.414.414,0,0,1-.153-.566.4.4,0,0,1,.563-.152l8.865,5.068a.413.413,0,0,1-.205.771" transform="translate(42.162 31.077)" fill="#6893e6"/>
          <path id="Path_77321" data-name="Path 77321" d="M185.914,68.34a.2.2,0,0,1-.048,0,.41.41,0,0,1-.362-.457l1.127-9.4a.413.413,0,0,1,.821.1l-1.127,9.4a.416.416,0,0,1-.41.365" transform="translate(56.979 17.851)" fill="#6893e6"/>
          <path id="Path_77322" data-name="Path 77322" d="M192.429,68.34a.2.2,0,0,1-.048,0,.412.412,0,0,1-.362-.457l1.124-9.4a.413.413,0,0,1,.82.1l-1.123,9.4a.416.416,0,0,1-.41.365" transform="translate(58.98 17.851)" fill="#6893e6"/>
          <path id="Path_77323" data-name="Path 77323" d="M198.942,68.34a.2.2,0,0,1-.048,0,.412.412,0,0,1-.362-.457l1.124-9.4a.409.409,0,0,1,.459-.361.414.414,0,0,1,.362.458l-1.124,9.4a.416.416,0,0,1-.41.365" transform="translate(60.981 17.851)" fill="#6893e6"/>
          <path id="Path_77324" data-name="Path 77324" d="M205.455,68.34a.2.2,0,0,1-.048,0,.41.41,0,0,1-.362-.457l1.128-9.4a.413.413,0,0,1,.82.1l-1.127,9.4a.416.416,0,0,1-.41.365" transform="translate(62.981 17.851)" fill="#6893e6"/>
          <path id="Path_77325" data-name="Path 77325" d="M219.182,143.8a.413.413,0,0,1-.1-.013l-24.619-6.333a.414.414,0,0,1-.3-.5.4.4,0,0,1,.5-.3l24.619,6.333a.414.414,0,0,1-.1.814" transform="translate(59.635 41.97)" fill="#fff"/>
          <path id="Path_77326" data-name="Path 77326" d="M200.376,142.643a29.7,29.7,0,0,0,7.771-11.443l13-34.327c-.724,21.738-4.2,37.072-20.768,45.77" transform="translate(61.548 29.756)" fill="#0d005a"/>
          <path id="Path_77327" data-name="Path 77327" d="M187.7,151.476c-.149,0-.294,0-.443,0a64.607,64.607,0,0,1-9.689-.8.408.408,0,0,1-.339-.475.417.417,0,0,1,.475-.339,64.369,64.369,0,0,0,9.566.791c.142,0,.285,0,.43,0a29.129,29.129,0,0,0,27.167-18.78l14.127-37.334a.418.418,0,0,1,.533-.242.414.414,0,0,1,.242.532L215.638,132.16A29.965,29.965,0,0,1,187.7,151.476" transform="translate(54.435 28.956)" fill="#fff"/>
          <path id="Path_77328" data-name="Path 77328" d="M120.327,41.449a25.615,25.615,0,0,0-23.056,36.87L86.776,90.37l15.536-5a25.657,25.657,0,1,0,18.015-43.922" transform="translate(26.655 12.732)" fill="#fff"/>
          <path id="Path_77329" data-name="Path 77329" d="M120.629,93.28A25.917,25.917,0,0,1,102.5,85.936l-16.711,5.38L97.085,78.35A25.776,25.776,0,0,1,94.555,67.2,26.075,26.075,0,1,1,120.629,93.28M102.726,85l.179.178a25.494,25.494,0,1,0-4.959-6.941l.12.246-9.7,11.138Z" transform="translate(26.352 12.634)" fill="#6893e6"/>
          <path id="Path_77330" data-name="Path 77330" d="M127.249,68.111a12.342,12.342,0,1,1-7.715-15.657,12.344,12.344,0,0,1,7.715,15.657" transform="translate(31.705 15.909)" fill="#ff6d00"/>
          <path id="Path_77331" data-name="Path 77331" d="M127.973,68.357A12.343,12.343,0,1,1,120.258,52.7a12.344,12.344,0,0,1,7.715,15.657" transform="translate(31.927 15.985)" fill="#ffae01"/>
          <path id="Path_77332" data-name="Path 77332" d="M120.51,61.269h-4.073c-.022-.924-.969-1.123-1.563-1.123-.374,0-1.586,0-1.586.749,0,1.673,7.508-.067,7.508,4.668,0,2.84-2.223,3.9-4.954,4.1l.176,3.017H113.53l.154-3.039c-2.532-.264-4.889-1.452-4.889-4.006h4.074v.088c.021,1.123,1.277,1.342,1.916,1.342.616,0,1.827-.043,1.827-.859,0-1.739-7.508-.154-7.508-4.733,0-2.643,2.047-3.656,4.579-3.876l-.154-3.038h2.489l-.176,3.016c2.444.2,4.668,1.255,4.668,3.7" transform="translate(33.418 16.757)" fill="#fff"/>
          <path id="Path_77333" data-name="Path 77333" d="M152.544,118H101.818v5.766h50.726a2.883,2.883,0,0,0,0-5.766" transform="translate(31.275 36.244)" fill="url(#linear-gradient)"/>
          <path id="Path_77334" data-name="Path 77334" d="M85.306,78.534H39.991L82.17,135.884h45.314Z" transform="translate(12.284 24.123)" fill="url(#linear-gradient)"/>
          <path id="Path_77335" data-name="Path 77335" d="M78.693,101.063c4.187,6.01,5.586,10.883,3.122,10.883s-7.855-4.873-12.042-10.883S64.187,90.18,66.65,90.18s7.855,4.873,12.043,10.883" transform="translate(20.099 27.7)" fill="#fff"/>
          <path id="Path_77336" data-name="Path 77336" d="M266.781,154.8s-2.745,19.711-17.2,39.718l-104.9-.231s-20.173,35.386-41.173,85.456c-2.051,4.9-4.135,9.955-6.184,15.113q-2.084,5.259-4.167,10.716s-36.312-12.7-52.981-31.914c0,0,18.455-71.83,54.039-122a36.152,36.152,0,0,1,26.258-15.079c20.206-1.919,56.982-3.44,96.039,4.3Z" transform="translate(12.341 41.476)" fill="#e43d4e"/>
          <path id="Path_77337" data-name="Path 77337" d="M93.584,258.685c-2.051,4.894-4.133,9.954-6.184,15.113-4.63-11.906-13.791-45.606-14.915-70.21Z" transform="translate(22.265 62.535)" fill="#0d005a"/>
          <path id="Path_77338" data-name="Path 77338" d="M56.017,276.219a.725.725,0,0,1-.077-.007.416.416,0,0,1-.328-.485c1.906-9.94,8.614-37.58,29.7-79.419,25.85-51.27,73.723-36.023,96.738-28.688l1.282.407c23.227,7.384,50.764,4.053,59.913-20.013a.421.421,0,0,1,.536-.243.414.414,0,0,1,.239.533c-9.35,24.577-37.34,28-60.94,20.511l-1.281-.407c-22.79-7.264-70.216-22.377-95.747,28.275-21.043,41.743-27.731,69.294-29.632,79.2a.412.412,0,0,1-.405.336" transform="translate(17.08 45.382)" fill="#ffae01"/>
          <path id="Path_77339" data-name="Path 77339" d="M157.227,137.718A64.82,64.82,0,0,0,124.5,153.137c1.993,12.815,4.069,27.418,2.739,40.319H120.49l-9.657-48.024Z" transform="translate(34.044 42.302)" fill="#0d005a"/>
          <path id="Path_77340" data-name="Path 77340" d="M130.362,155.925a565.5,565.5,0,0,1,18.487,126.233,76.581,76.581,0,0,1-54.667,10.55A234.836,234.836,0,0,1,74.041,144.747,27.681,27.681,0,0,1,83.7,128.112c.065-.034.1-.1.165-.132a26.123,26.123,0,0,1,14.75-5.325,186.759,186.759,0,0,1,92.236,19.313,99.524,99.524,0,0,0-60.488,13.957" transform="translate(21.468 37.607)" fill="#e43d4e"/>
          <path id="Path_77341" data-name="Path 77341" d="M143.141,245.071a76.581,76.581,0,0,1-54.667,10.55,66.81,66.81,0,0,1,54.667-10.55" transform="translate(27.176 74.694)" fill="#0d005a"/>
          <path id="Path_77342" data-name="Path 77342" d="M113.777,270.067h-.009a.413.413,0,0,1-.4-.424A338.039,338.039,0,0,0,97.048,157.052a18.3,18.3,0,0,1,14.486-23.634,152.39,152.39,0,0,1,60.408,2.312.409.409,0,0,1,.3.5.4.4,0,0,1-.5.3,151.714,151.714,0,0,0-60.083-2.3A17.48,17.48,0,0,0,97.837,156.8a338.826,338.826,0,0,1,16.354,112.862.413.413,0,0,1-.413.4" transform="translate(29.54 40.373)" fill="#ffae01"/>
          <path id="Path_77343" data-name="Path 77343" d="M134.935,275.228c-5.555,10.351-29.169,36.841-47.225,33.1a6.4,6.4,0,0,1-5.094-5.821c-1.256-16.767,21.894-21.892,25.4-35.618q.3-1.141.5-2.182c2.15-10.219.265-17.231.265-17.231s7.44-3.6,19.809-3.539c.233,2.514.562,5.689,1.026,9.061,1.058,8.036,2.778,17.33,5.324,22.224" transform="translate(25.361 74.93)" fill="#ff827c"/>
          <path id="Path_77344" data-name="Path 77344" d="M134.936,273.1c-5.555,10.351-29.169,36.841-47.225,33.1a6.4,6.4,0,0,1-5.094-5.821,12.64,12.64,0,0,1,.1-3.174c1.654-14.287,22.026-19.645,25.3-32.444q.3-1.141.5-2.182c5.457-.2,17.329-3.307,21.1-11.708a114.06,114.06,0,0,0,3.372,17.2,32.794,32.794,0,0,0,1.952,5.027" transform="translate(25.36 77.06)" fill="#4b2e71"/>
          <path id="Path_77345" data-name="Path 77345" d="M134.936,269.057c-5.555,10.351-29.169,36.841-47.225,33.1a6.4,6.4,0,0,1-5.094-5.821,12.64,12.64,0,0,1,.1-3.174c1.059,6.085,9.889,5.919,19.181,1.224,9.128-4.63,25.1-19.181,31.087-30.36a32.791,32.791,0,0,0,1.952,5.027" transform="translate(25.36 81.101)" fill="#c46bfb"/>
          <path id="Path_77346" data-name="Path 77346" d="M100.08,289.022a.414.414,0,0,1-.408-.349,11.194,11.194,0,0,0-11.809-9.4.408.408,0,0,1-.439-.388.413.413,0,0,1,.384-.439c.271-.016.537-.026.8-.026a12,12,0,0,1,11.878,10.128.412.412,0,0,1-.341.472.635.635,0,0,1-.067.007" transform="translate(26.853 85.52)" fill="#fff"/>
          <path id="Path_77347" data-name="Path 77347" d="M93.408,285.08a.406.406,0,0,1-.269-.1.414.414,0,0,1-.044-.584,110.976,110.976,0,0,1,10.148-10.08c5.656-5.112,9.741-8.808,9.912-14.5a.414.414,0,0,1,.413-.4h.013a.413.413,0,0,1,.4.426c-.18,6.047-4.378,9.838-10.184,15.089a109.769,109.769,0,0,0-10.074,10.009.416.416,0,0,1-.314.143" transform="translate(28.565 79.683)" fill="#fff"/>
          <path id="Path_77348" data-name="Path 77348" d="M81.6,253.775a.41.41,0,0,1-.4-.3c-5.933-21.652-11.834-56.015-11.627-79.8a.416.416,0,0,1,.414-.41h0a.415.415,0,0,1,.41.417c-.205,23.712,5.68,57.982,11.6,79.575a.413.413,0,0,1-.289.507.36.36,0,0,1-.11.016" transform="translate(21.37 53.219)" fill="#0d005a"/>
          <path id="Path_77349" data-name="Path 77349" d="M207.625,149.007a.354.354,0,0,1-.11-.016L175.052,140a.412.412,0,0,1-.288-.507.4.4,0,0,1,.507-.288l32.463,8.995a.413.413,0,0,1-.11.81" transform="translate(53.677 42.752)" fill="#0d005a"/>
          <path id="Path_77350" data-name="Path 77350" d="M173.83,85.952a.386.386,0,0,1-.158-.033.413.413,0,0,1-.222-.539c.435-1.056,4.392-10.4,9.825-15.815V63.9a.413.413,0,1,1,.826,0v5.836a.417.417,0,0,1-.123.293C178.6,75.31,174.644,84.65,174.211,85.7a.414.414,0,0,1-.382.255" transform="translate(53.268 19.501)" fill="#0d005a"/>
          <path id="Path_77351" data-name="Path 77351" d="M91.378,267.4a.4.4,0,0,1-.122-.02,120.584,120.584,0,0,1-47.872-28.172.413.413,0,0,1-.013-.584.421.421,0,0,1,.586-.009A119.817,119.817,0,0,0,91.5,266.6a.413.413,0,0,1-.122.808" transform="translate(13.287 73.26)" fill="#ffae01"/>
          <path id="Path_77352" data-name="Path 77352" d="M89.533,250.585a.409.409,0,0,1-.341-.18.415.415,0,0,1,.107-.575,61.873,61.873,0,0,1,51.215-8.711.416.416,0,0,1,.291.507.408.408,0,0,1-.507.294,61,61,0,0,0-50.531,8.595.413.413,0,0,1-.234.071" transform="translate(27.374 73.401)" fill="#ffae01"/>
          <path id="Path_77353" data-name="Path 77353" d="M126.251,146.552a.413.413,0,0,1-.186-.782c4.393-2.2,19.523-9.059,37.293-9.059q1.508,0,3.043.068a.413.413,0,0,1,.393.433.424.424,0,0,1-.433.393c-1.008-.044-2.012-.068-3.006-.068-17.587,0-32.569,6.789-36.92,8.968a.383.383,0,0,1-.186.046" transform="translate(38.653 41.993)" fill="#0d005a"/>
        </g>
      </g>
    </g>
    <ellipse id="Ellipse_8" data-name="Ellipse 8" cx="174" cy="8" rx="174" ry="8" transform="translate(1380 600)" fill="#e8e8e8" opacity="0.725"/>
  </g>
</svg>
