<svg xmlns="http://www.w3.org/2000/svg" width="84" height="84" viewBox="0 0 84 84">
  <g id="Group_71084" data-name="Group 71084" transform="translate(-0.438 -0.438)">
    <rect id="Rectangle_29903" data-name="Rectangle 29903" width="84" height="84" transform="translate(0.438 0.438)" fill="none"/>
    <g id="Group_71083" data-name="Group 71083" transform="translate(8.657 1.698)">
      <g id="Group_71078" data-name="Group 71078" transform="translate(16.296 20.688)">
        <g id="Group_71074" data-name="Group 71074" transform="translate(9.167 2.55)">
          <g id="Group_71072" data-name="Group 71072" transform="translate(1.019 0.951)">
            <path id="Path_78535" data-name="Path 78535" d="M42.758,30.5a1.218,1.218,0,0,1,1.1,1.273V55.538a1.285,1.285,0,0,1-1.1,1.273A1.208,1.208,0,0,1,41.4,55.623V31.773A1.272,1.272,0,0,1,42.758,30.5Z" transform="translate(-41.4 -30.5)"/>
          </g>
          <g id="Group_71073" data-name="Group 71073">
            <path id="Path_78536" data-name="Path 78536" d="M42.407,57.745A2.191,2.191,0,0,1,40.2,55.539V31.6A2.21,2.21,0,0,1,42.661,29.4,2.3,2.3,0,0,1,44.7,31.689V55.454a2.3,2.3,0,0,1-2.037,2.292Zm.085-26.4c-.17,0-.255.085-.255.17V55.454a.183.183,0,0,0,.17.17h0c.085,0,.17-.17.17-.255V31.6a.163.163,0,0,0-.085-.255Z" transform="translate(-40.2 -29.38)"/>
          </g>
        </g>
        <g id="Group_71077" data-name="Group 71077">
          <g id="Group_71075" data-name="Group 71075" transform="translate(1.05 0.934)">
            <path id="Path_78537" data-name="Path 78537" d="M40.451,27.666a.774.774,0,0,1,1.019,0l9.591,9.082a1.2,1.2,0,1,1-1.613,1.782l-8.4-7.978h0l-8.4,7.978a1.2,1.2,0,1,1-1.613-1.782Z" transform="translate(-30.637 -27.475)"/>
          </g>
          <g id="Group_71076" data-name="Group 71076">
            <path id="Path_78538" data-name="Path 78538" d="M50.11,39.722a2.44,2.44,0,0,1-1.528-.594l-7.724-7.3-7.724,7.3a2.209,2.209,0,0,1-3.735-1.7,1.988,1.988,0,0,1,.679-1.528l9.591-9.082a1.922,1.922,0,0,1,2.461,0L51.722,35.9A2.125,2.125,0,0,1,52.4,37.43a2.24,2.24,0,0,1-.594,1.613A2.7,2.7,0,0,1,50.11,39.722ZM40.773,29.367H41.2l.34.34,8.4,7.978a.159.159,0,0,0,.255,0c.085-.085.085-.085.085-.17a.263.263,0,0,0-.085-.17l-9.421-8.912-9.421,8.912c-.085.085-.085.085-.085.17a.263.263,0,0,0,.085.17.159.159,0,0,0,.255,0l8.742-8.233Z" transform="translate(-29.4 -26.375)"/>
          </g>
        </g>
      </g>
      <g id="Group_71080" data-name="Group 71080">
        <g id="Group_71079" data-name="Group 71079">
          <path id="Path_78539" data-name="Path 78539" d="M59.258,72.022H16.566A6.357,6.357,0,0,1,10.2,65.657V8.366A6.357,6.357,0,0,1,16.566,2H59.258a6.357,6.357,0,0,1,6.366,6.366V65.572A6.43,6.43,0,0,1,59.258,72.022ZM16.566,6.753a1.7,1.7,0,0,0-1.7,1.7V65.657a1.7,1.7,0,0,0,1.7,1.7H59.258a1.7,1.7,0,0,0,1.7-1.7V8.366a1.7,1.7,0,0,0-1.7-1.7H16.566Z" transform="translate(-10.2 -2)"/>
        </g>
      </g>
      <g id="Group_71082" data-name="Group 71082" transform="translate(12.137 11.458)">
        <g id="Group_71081" data-name="Group 71081">
          <path id="Path_78540" data-name="Path 78540" d="M73.558,85.522H30.866A6.357,6.357,0,0,1,24.5,79.157a2.377,2.377,0,1,1,4.753,0,1.7,1.7,0,0,0,1.7,1.7H73.643a1.7,1.7,0,0,0,1.7-1.7V21.951a1.7,1.7,0,0,0-1.7-1.7,2.372,2.372,0,0,1-2.377-2.377A2.321,2.321,0,0,1,73.643,15.5a6.357,6.357,0,0,1,6.366,6.366V79.072A6.5,6.5,0,0,1,73.558,85.522Z" transform="translate(-24.5 -15.5)"/>
        </g>
      </g>
    </g>
  </g>
</svg>
