<svg xmlns="http://www.w3.org/2000/svg" xmlns:xlink="http://www.w3.org/1999/xlink" width="210.449" height="58.17" viewBox="0 0 210.449 58.17">
  <defs>
    <clipPath id="clip-path">
      <rect id="Rectangle_29875" data-name="Rectangle 29875" width="210.449" height="58.17" fill="none"/>
    </clipPath>
    <linearGradient id="linear-gradient" x1="0.5" x2="0.5" y2="1" gradientUnits="objectBoundingBox">
      <stop offset="0" stop-color="#4b2e74"/>
      <stop offset="1" stop-color="#4c2d5e"/>
    </linearGradient>
  </defs>
  <g id="Group_71062" data-name="Group 71062" transform="translate(0 0)">
    <g id="Group_71061" data-name="Group 71061" transform="translate(0 0)" clip-path="url(#clip-path)">
      <path id="Path_78498" data-name="Path 78498" d="M93.677,36.85l5.968-3.489c1.365,3.591,4.1,5.412,8.144,5.412,3.894,0,5.664-1.568,5.664-3.743a3.155,3.155,0,0,0-1.668-2.883,24.456,24.456,0,0,0-5.969-2.276,22.846,22.846,0,0,1-7.334-3.288A8.549,8.549,0,0,1,95.143,19.3a9.387,9.387,0,0,1,3.389-7.637,12.416,12.416,0,0,1,8.245-2.883,13.532,13.532,0,0,1,12.644,7.94l-5.867,3.389c-1.416-3.034-3.692-4.552-6.777-4.552-2.883,0-4.653,1.467-4.653,3.541a3.306,3.306,0,0,0,1.365,2.731,21.6,21.6,0,0,0,5.361,2.226l2.427.809a20.511,20.511,0,0,1,2.277.86,10.171,10.171,0,0,1,2.225,1.062,10.364,10.364,0,0,1,3.338,3.136,9.621,9.621,0,0,1,1.316,5.007,9.488,9.488,0,0,1-3.592,7.789,14.263,14.263,0,0,1-9.256,2.883c-7.031,0-11.937-3.339-13.909-8.751" transform="translate(-21.089 -1.976)" fill="#4b2e74"/>
      <path id="Path_78499" data-name="Path 78499" d="M139.419,45.1l-9.914-35.4h7.334l6.778,26.25L151,9.693h5.969l7.435,26.25,6.779-26.25h7.333L168.6,45.1h-7.941L153.987,21.73,147.36,45.1Z" transform="translate(-29.155 -2.182)" fill="#4b2e74"/>
      <path id="Path_78500" data-name="Path 78500" d="M217.208,45.1l-2.125-6.373H200.972L198.848,45.1h-7.536L203.7,9.693h8.649L224.8,45.1ZM203.2,32.2h9.712l-4.856-14.465Z" transform="translate(-43.069 -2.182)" fill="#4b2e74"/>
      <path id="Path_78501" data-name="Path 78501" d="M252.155,9.693a11.867,11.867,0,0,1,8.6,3.439,11.374,11.374,0,0,1,3.49,8.447,11.375,11.375,0,0,1-3.49,8.447,11.87,11.87,0,0,1-8.6,3.439h-6.222V45.1h-6.979V9.693Zm0,17.247a5.135,5.135,0,0,0,5.159-5.361,5.105,5.105,0,0,0-5.159-5.361h-6.222V26.94Z" transform="translate(-53.794 -2.182)" fill="#4b2e74"/>
      <path id="Path_78502" data-name="Path 78502" d="M94.087,61.845H94.8V68.33h3.979v.676H94.087Z" transform="translate(-21.181 -13.923)" fill="#e13513"/>
      <rect id="Rectangle_29872" data-name="Rectangle 29872" width="0.716" height="7.161" transform="translate(80.608 47.922)" fill="#e13513"/>
      <path id="Path_78503" data-name="Path 78503" d="M109.889,61.844h3.049a2.872,2.872,0,0,1,1.713.487,1.7,1.7,0,0,1,.68,1.478,1.557,1.557,0,0,1-.3.936,1.623,1.623,0,0,1-.824.588,1.813,1.813,0,0,1,1.341,1.74,1.883,1.883,0,0,1-.149.766,1.533,1.533,0,0,1-.394.552,2.093,2.093,0,0,1-.593.358,3.083,3.083,0,0,1-.706.2,4.788,4.788,0,0,1-.766.057h-3.049Zm.716.666v2.506h2.383a2.077,2.077,0,0,0,1.166-.3,1.02,1.02,0,0,0,.461-.915,1.087,1.087,0,0,0-.471-.982,2.171,2.171,0,0,0-1.206-.307Zm0,3.16v2.66h2.333a3.266,3.266,0,0,0,.644-.061,2.832,2.832,0,0,0,.6-.194,1.063,1.063,0,0,0,.645-1.014,1.176,1.176,0,0,0-.563-1.038,2.326,2.326,0,0,0-1.279-.353Z" transform="translate(-24.739 -13.922)" fill="#e13513"/>
      <path id="Path_78504" data-name="Path 78504" d="M126.695,68.33v.676h-5.136V61.845H126.6v.675h-4.328v2.568h4.133v.664h-4.133V68.33Z" transform="translate(-27.366 -13.923)" fill="#e13513"/>
      <path id="Path_78505" data-name="Path 78505" d="M136.01,66.315,138.455,69h-.931l-2.373-2.639H133.3V69h-.716V61.844h3.212a2.191,2.191,0,0,1,2.373,2.271,2.075,2.075,0,0,1-2.159,2.2m-.215-3.8h-2.5v3.172h2.456a1.71,1.71,0,0,0,1.263-.435,1.542,1.542,0,0,0,.435-1.141,1.585,1.585,0,0,0-.429-1.151,1.628,1.628,0,0,0-1.228-.445" transform="translate(-29.848 -13.922)" fill="#e13513"/>
      <path id="Path_78506" data-name="Path 78506" d="M145.578,69.005V62.52h-2.526v-.676h5.769v.676h-2.527v6.485Z" transform="translate(-32.205 -13.923)" fill="#e13513"/>
      <path id="Path_78507" data-name="Path 78507" d="M154.365,68.408V61.248h5.044v.675h-4.328V64.49h4.133v.664h-4.133v2.578h4.42v.676Zm2.967-9.217-.767,1.268V60.5h.623l.962-1.289v-.021Z" transform="translate(-34.751 -13.325)" fill="#e13513"/>
      <path id="Path_78508" data-name="Path 78508" d="M171.926,69.005h-.716V61.845h4.9v.676h-4.184v2.721h4.031v.675h-4.031Z" transform="translate(-38.544 -13.923)" fill="#e13513"/>
      <rect id="Rectangle_29873" data-name="Rectangle 29873" width="0.716" height="7.161" transform="translate(140.922 47.922)" fill="#e13513"/>
      <path id="Path_78509" data-name="Path 78509" d="M188.175,61.845l4.633,5.81-.04-2.373V61.845h.716v7.161h-.429l-4.635-5.76.02,2.118v3.642h-.715V61.845Z" transform="translate(-42.262 -13.923)" fill="#e13513"/>
      <path id="Path_78510" data-name="Path 78510" d="M205.475,69l-.736-1.657h-4.153L199.849,69h-.757l3.211-7.161h.718L206.232,69Zm-2.813-6.383-1.79,4.071h3.58Z" transform="translate(-44.821 -13.922)" fill="#e13513"/>
      <path id="Path_78511" data-name="Path 78511" d="M212.69,61.845l4.633,5.81-.04-2.373V61.845H218v7.161h-.429l-4.635-5.76.02,2.118v3.642h-.715V61.845Z" transform="translate(-47.781 -13.923)" fill="#e13513"/>
      <path id="Path_78512" data-name="Path 78512" d="M229.9,67.544l.46.459A3.905,3.905,0,0,1,225,68.05a3.726,3.726,0,0,1-.977-2.614,4.038,4.038,0,0,1,.394-1.83,3.274,3.274,0,0,1,1.269-1.361,3.851,3.851,0,0,1,2.061-.532,3.728,3.728,0,0,1,1.416.271,2.819,2.819,0,0,1,1.12.8l-.439.439a2.875,2.875,0,0,0-2.1-.859,2.8,2.8,0,0,0-2.215.895,3.148,3.148,0,0,0-.793,2.163,3.035,3.035,0,0,0,.783,2.159,2.891,2.891,0,0,0,2.225.838,2.924,2.924,0,0,0,2.149-.879" transform="translate(-50.434 -13.893)" fill="#e13513"/>
      <rect id="Rectangle_29874" data-name="Rectangle 29874" width="0.716" height="7.161" transform="translate(183.138 47.922)" fill="#e13513"/>
      <path id="Path_78513" data-name="Path 78513" d="M247.342,67.724V68.4h-5.136V61.239h5.044v.676h-4.328v2.567h4.133v.665h-4.133v2.577Zm-3.509-8.551v-.02h.839l.756,1.268v.04h-.644Z" transform="translate(-54.527 -13.316)" fill="#e13513"/>
      <path id="Path_78514" data-name="Path 78514" d="M256.655,66.315,259.1,69h-.931L255.8,66.365h-1.852V69h-.716V61.844h3.212a2.191,2.191,0,0,1,2.373,2.271,2.075,2.075,0,0,1-2.159,2.2m-.215-3.8h-2.5v3.172H256.4a1.71,1.71,0,0,0,1.263-.435,1.542,1.542,0,0,0,.435-1.141,1.585,1.585,0,0,0-.429-1.151,1.628,1.628,0,0,0-1.228-.445" transform="translate(-57.008 -13.922)" fill="#e13513"/>
      <path id="Path_78515" data-name="Path 78515" d="M270.089,68.33v.676h-5.136V61.845H270v.675h-4.328v2.568H269.8v.664h-4.133V68.33Z" transform="translate(-59.648 -13.923)" fill="#e13513"/>
      <path id="Path_78516" data-name="Path 78516" d="M2.43,16.589s20.579-37.326,60.528,0l-8.07,17.15S18.369-.359,2.43,16.589" transform="translate(-0.547 0)" fill="url(#linear-gradient)"/>
      <path id="Path_78517" data-name="Path 78517" d="M60.528,48.679S39.949,86,0,48.679l8.07-17.15s36.518,34.1,52.457,17.15" transform="translate(0 -7.098)" fill="#e13513"/>
    </g>
  </g>
</svg>
