<svg id="Group_71065" data-name="Group 71065" xmlns="http://www.w3.org/2000/svg" width="64.37" height="82.99" viewBox="0 0 64.37 82.99">
  <path id="Path_78530" data-name="Path 78530" d="M69.088,5.3H36.447a1.465,1.465,0,0,0-.262.025l-.022,0a1.42,1.42,0,0,0-.332.118c-.03.015-.057.03-.086.046a1.388,1.388,0,0,0-.3.221L18.885,22.27a1.375,1.375,0,0,0-.221.3c-.016.028-.03.054-.045.083a1.425,1.425,0,0,0-.122.341v0a1.458,1.458,0,0,0-.027.273V74.537c0,12.212,1.542,13.753,13.753,13.753H69.089c12.21,0,13.753-1.542,13.753-13.753V19.053C82.841,6.842,81.3,5.3,69.088,5.3ZM35.033,10.126V20.442a1.414,1.414,0,0,1-1.414,1.414H23.3l5.884-5.881Zm44.98,64.411c0,10.62-.306,10.926-10.925,10.926H32.223C21.6,85.463,21.3,85.157,21.3,74.537V24.683H33.619a4.246,4.246,0,0,0,4.241-4.241V8.128H69.088c10.619,0,10.925.306,10.925,10.926Z" transform="translate(-18.471 -5.3)"/>
  <path id="Path_78531" data-name="Path 78531" d="M50.067,40.124l7.746-6.851V55.038a1.414,1.414,0,0,0,2.828,0V33.273l7.746,6.851A1.415,1.415,0,0,0,70.26,38l-10.1-8.927c-.025-.023-.054-.039-.08-.059s-.065-.049-.1-.071a1.239,1.239,0,0,0-.134-.071c-.033-.016-.066-.034-.1-.048a1.408,1.408,0,0,0-.166-.052c-.03-.008-.057-.018-.088-.024a1.409,1.409,0,0,0-.539,0c-.03.006-.059.016-.088.024a1.368,1.368,0,0,0-.166.052c-.035.014-.067.032-.1.048a1.238,1.238,0,0,0-.134.071q-.051.033-.1.071c-.026.02-.055.036-.08.059l-10.1,8.929a1.415,1.415,0,1,0,1.873,2.121Z" transform="translate(-27.043 -12.166)"/>
  <path id="Path_78532" data-name="Path 78532" d="M51.464,73.9H66.142a5.2,5.2,0,0,0,5.2-5.2v-7.55a1.414,1.414,0,1,0-2.828,0v7.55a2.37,2.37,0,0,1-2.368,2.367H51.464A2.37,2.37,0,0,1,49.1,68.709v-7.55a1.414,1.414,0,0,0-2.828,0v7.55A5.2,5.2,0,0,0,51.464,73.9Z" transform="translate(-26.618 -21.258)"/>
  <path id="Path_78533" data-name="Path 78533" d="M52.372,89.307a1.414,1.414,0,0,0,0,2.828H67.983a1.414,1.414,0,1,0,0-2.828Z" transform="translate(-27.993 -29.922)"/>
  <path id="Path_78534" data-name="Path 78534" d="M74.956,104.37H35.52a1.414,1.414,0,1,0,0,2.828H74.956a1.414,1.414,0,1,0,0-2.828Z" transform="translate(-23.054 -34.337)"/>
</svg>
