<svg xmlns="http://www.w3.org/2000/svg" width="24.365" height="24.163" viewBox="0 0 24.365 24.163">
  <g id="icons" transform="translate(-1.984 -2.163)">
    <g id="user" transform="translate(1.984 2)">
      <ellipse id="Ellipse_4" data-name="Ellipse 4" cx="6" cy="7" rx="6" ry="7" transform="translate(6.183 0.163)"/>
      <path id="Path_78529" data-name="Path 78529" d="M26.087,20.039a11.085,11.085,0,0,0-5.838-5.109,2.723,2.723,0,0,0-2.189.122,7.467,7.467,0,0,1-7.785,0,2.737,2.737,0,0,0-2.189,0A11.085,11.085,0,0,0,2.247,20.16a2.4,2.4,0,0,0,2.311,3.406H23.776A2.464,2.464,0,0,0,26.087,20.039Z" transform="translate(-1.984 0.761)"/>
    </g>
  </g>
</svg>
